<?xml version="1.0" encoding="utf-8"?>
<!-- Generator: Adobe Illustrator 16.0.0, SVG Export Plug-In . SVG Version: 6.00 Build 0)  -->
<!DOCTYPE svg PUBLIC "-//W3C//DTD SVG 1.1//EN" "http://www.w3.org/Graphics/SVG/1.1/DTD/svg11.dtd">
<svg version="1.1" id="Layer_1" xmlns="http://www.w3.org/2000/svg" xmlns:xlink="http://www.w3.org/1999/xlink" x="0px" y="0px"
	 width="230px" height="298px" viewBox="0 0 230 298" enable-background="new 0 0 230 298" xml:space="preserve">
<g id="laagste_punt">
	<g>
		<path fill="#010101" d="M210,298h-8V29.789C202,17.571,192.41,8,180.168,8h-130C37.944,8,28,17.774,28,29.789V298h-8V29.789
			C20,13.363,33.533,0,50.168,0h130C196.617,0,210,13.363,210,29.789V298z"/>
	</g>
	<g>
		<g>
			<path fill="#010101" d="M67.146,27.283l12.807,20.58h0.082v-20.58h6.318v30.679h-6.746L66.844,37.425h-0.082v20.538h-6.318
				V27.283H67.146z"/>
		</g>
		<g>
			<path fill="#010101" d="M98.643,51.344v6.619h-6.746v-6.619H98.643z"/>
		</g>
		<g>
			<path fill="#010101" d="M119.525,27.283l11.469,30.679h-7.002l-2.316-6.833h-11.475l-2.406,6.833h-6.787l11.598-30.679H119.525z
				 M119.912,46.104l-3.869-11.258h-0.082l-3.998,11.258H119.912z"/>
		</g>
		<g>
			<path fill="#010101" d="M140.021,51.344v6.619h-6.746v-6.619H140.021z"/>
		</g>
		<g>
			<path fill="#010101" d="M159.438,27.283c1.926,0,3.557,0.278,4.904,0.837s2.443,1.296,3.287,2.212
				c0.844,0.918,1.455,1.963,1.844,3.139c0.389,1.174,0.584,2.391,0.584,3.65c0,1.233-0.195,2.444-0.584,3.632s-1,2.242-1.844,3.159
				c-0.844,0.916-1.939,1.653-3.287,2.212s-2.979,0.837-4.904,0.837h-7.084v11h-6.746V27.283H159.438z M157.594,41.721
				c0.775,0,1.521-0.058,2.232-0.172c0.719-0.115,1.348-0.336,1.895-0.667c0.545-0.329,0.979-0.795,1.309-1.396
				c0.332-0.602,0.494-1.389,0.494-2.364c0-0.972-0.162-1.759-0.494-2.361c-0.33-0.602-0.764-1.067-1.309-1.397
				c-0.547-0.328-1.176-0.552-1.895-0.666c-0.711-0.115-1.457-0.172-2.232-0.172h-5.24v9.196H157.594z"/>
		</g>
	</g>
	<g>
		<line fill="#010101" x1="9" y1="68" x2="220" y2="68"/>
		<rect x="9" y="66" fill="#010101" width="211" height="4"/>
	</g>
	<g>
		<line fill="#010101" x1="23" y1="253" x2="205" y2="253"/>
		<rect x="23" y="251" fill="#010101" width="182" height="4"/>
	</g>
	<g>
		<line fill="#010101" x1="169" y1="69" x2="169" y2="298"/>
		<rect x="167" y="69" fill="#010101" width="4" height="229"/>
	</g>
	<g>
		<line fill="#010101" x1="169" y1="102" x2="150" y2="102"/>
		<rect x="150" y="100" fill="#010101" width="19" height="4"/>
	</g>
	<g>
		<line fill="#010101" x1="172" y1="157" x2="153" y2="157"/>
		<rect x="153" y="155" fill="#010101" width="19" height="4"/>
	</g>
	<g>
		<line fill="#010101" x1="172" y1="213" x2="153" y2="213"/>
		<rect x="153" y="211" fill="#010101" width="19" height="4"/>
	</g>
	<g>
		<polygon fill="#010101" points="0,262.338 15.721,253.262 0,244.185 		"/>
	</g>
	<g>
		<polygon fill="#010101" points="230,262.338 214.281,253.262 230,244.185 		"/>
	</g>
	<g>
		<path fill="#010101" d="M98.27,102.254v2.196h-5.418v-2.196H98.27z"/>
		<path fill="#010101" d="M100.141,98.501c0.191-0.618,0.48-1.158,0.865-1.62c0.383-0.462,0.865-0.822,1.449-1.08
			c0.58-0.258,1.25-0.387,2.006-0.387c0.576,0,1.125,0.09,1.646,0.27c0.523,0.18,0.982,0.438,1.377,0.774
			c0.396,0.336,0.711,0.75,0.945,1.242s0.352,1.044,0.352,1.656c0,0.636-0.102,1.182-0.307,1.638
			c-0.203,0.456-0.475,0.861-0.809,1.215c-0.338,0.354-0.719,0.675-1.145,0.963c-0.426,0.288-0.854,0.573-1.287,0.855
			c-0.432,0.282-0.852,0.585-1.26,0.909c-0.408,0.324-0.768,0.702-1.08,1.134h5.959v2.196h-9.252c0-0.732,0.104-1.368,0.314-1.908
			c0.209-0.54,0.496-1.022,0.855-1.449c0.359-0.426,0.783-0.819,1.27-1.179c0.484-0.36,0.998-0.726,1.539-1.098
			c0.275-0.192,0.568-0.387,0.881-0.585c0.312-0.198,0.598-0.417,0.855-0.657c0.258-0.24,0.475-0.51,0.648-0.81
			c0.174-0.3,0.26-0.642,0.26-1.026c0-0.612-0.176-1.089-0.531-1.431c-0.354-0.342-0.807-0.513-1.357-0.513
			c-0.373,0-0.688,0.087-0.945,0.261c-0.258,0.174-0.465,0.402-0.621,0.684c-0.156,0.282-0.268,0.594-0.334,0.936
			c-0.066,0.342-0.098,0.681-0.098,1.017h-2.449C99.865,99.788,99.949,99.119,100.141,98.501z"/>
		<path fill="#010101" d="M113.137,105.494v2.772h-2.826v-2.772H113.137z"/>
		<path fill="#010101" d="M114.982,98.825c0.246-0.834,0.578-1.503,0.998-2.007c0.42-0.504,0.91-0.864,1.467-1.08
			c0.559-0.216,1.15-0.324,1.773-0.324c0.637,0,1.232,0.108,1.791,0.324c0.559,0.216,1.051,0.576,1.477,1.08
			c0.426,0.504,0.762,1.173,1.008,2.007s0.369,1.863,0.369,3.087c0,1.26-0.123,2.313-0.369,3.159
			c-0.246,0.846-0.582,1.521-1.008,2.025s-0.918,0.864-1.477,1.08c-0.559,0.216-1.154,0.324-1.791,0.324
			c-0.623,0-1.215-0.108-1.773-0.324c-0.557-0.216-1.047-0.576-1.467-1.08s-0.752-1.179-0.998-2.025
			c-0.246-0.846-0.369-1.899-0.369-3.159C114.613,100.688,114.736,99.659,114.982,98.825z M117.205,103.217
			c0.023,0.51,0.1,1.002,0.225,1.476c0.127,0.475,0.326,0.879,0.604,1.215c0.275,0.336,0.672,0.504,1.188,0.504
			c0.527,0,0.934-0.168,1.215-0.504s0.486-0.741,0.613-1.215c0.125-0.474,0.199-0.965,0.225-1.476
			c0.023-0.51,0.035-0.945,0.035-1.305c0-0.216-0.002-0.477-0.008-0.783c-0.008-0.306-0.031-0.621-0.072-0.945
			c-0.043-0.324-0.104-0.645-0.18-0.963c-0.08-0.318-0.195-0.603-0.352-0.855s-0.355-0.456-0.594-0.612
			c-0.24-0.156-0.535-0.234-0.883-0.234s-0.639,0.078-0.873,0.234c-0.234,0.156-0.426,0.36-0.576,0.612s-0.268,0.537-0.352,0.855
			s-0.143,0.639-0.18,0.963c-0.035,0.324-0.057,0.639-0.062,0.945c-0.006,0.306-0.01,0.567-0.01,0.783
			C117.168,102.272,117.182,102.707,117.205,103.217z"/>
		<path fill="#010101" d="M124.99,98.825c0.246-0.834,0.578-1.503,0.998-2.007c0.42-0.504,0.91-0.864,1.467-1.08
			c0.559-0.216,1.15-0.324,1.773-0.324c0.637,0,1.232,0.108,1.791,0.324c0.559,0.216,1.051,0.576,1.477,1.08
			c0.426,0.504,0.762,1.173,1.008,2.007s0.369,1.863,0.369,3.087c0,1.26-0.123,2.313-0.369,3.159
			c-0.246,0.846-0.582,1.521-1.008,2.025s-0.918,0.864-1.477,1.08c-0.559,0.216-1.154,0.324-1.791,0.324
			c-0.623,0-1.215-0.108-1.773-0.324c-0.557-0.216-1.047-0.576-1.467-1.08s-0.752-1.179-0.998-2.025
			c-0.246-0.846-0.369-1.899-0.369-3.159C124.621,100.688,124.744,99.659,124.99,98.825z M127.213,103.217
			c0.023,0.51,0.1,1.002,0.225,1.476c0.127,0.475,0.326,0.879,0.604,1.215c0.275,0.336,0.672,0.504,1.188,0.504
			c0.527,0,0.934-0.168,1.215-0.504s0.486-0.741,0.613-1.215c0.125-0.474,0.199-0.965,0.225-1.476
			c0.023-0.51,0.035-0.945,0.035-1.305c0-0.216-0.002-0.477-0.008-0.783c-0.008-0.306-0.031-0.621-0.072-0.945
			c-0.043-0.324-0.104-0.645-0.18-0.963c-0.08-0.318-0.195-0.603-0.352-0.855s-0.355-0.456-0.594-0.612
			c-0.24-0.156-0.535-0.234-0.883-0.234s-0.639,0.078-0.873,0.234c-0.234,0.156-0.426,0.36-0.576,0.612s-0.268,0.537-0.352,0.855
			s-0.143,0.639-0.18,0.963c-0.035,0.324-0.057,0.639-0.062,0.945c-0.006,0.306-0.01,0.567-0.01,0.783
			C127.176,102.272,127.189,102.707,127.213,103.217z"/>
	</g>
	<g>
		<path fill="#010101" d="M98.27,156.754v2.195h-5.418v-2.195H98.27z"/>
		<path fill="#010101" d="M99.512,159.85v-2.34l5.471-7.344h2.287v7.578h1.674v2.105h-1.674v2.916h-2.43v-2.916H99.512z
			 M104.785,153.37l-3.258,4.375h3.312v-4.375H104.785z"/>
		<path fill="#010101" d="M113.137,159.995v2.771h-2.826v-2.771H113.137z"/>
		<path fill="#010101" d="M114.982,153.325c0.246-0.834,0.578-1.502,0.998-2.007c0.42-0.504,0.91-0.864,1.467-1.079
			c0.559-0.217,1.15-0.324,1.773-0.324c0.637,0,1.232,0.107,1.791,0.324c0.559,0.215,1.051,0.575,1.477,1.079
			c0.426,0.505,0.762,1.173,1.008,2.007s0.369,1.863,0.369,3.088c0,1.26-0.123,2.312-0.369,3.158s-0.582,1.521-1.008,2.025
			s-0.918,0.863-1.477,1.08c-0.559,0.216-1.154,0.324-1.791,0.324c-0.623,0-1.215-0.108-1.773-0.324
			c-0.557-0.217-1.047-0.576-1.467-1.08s-0.752-1.18-0.998-2.025s-0.369-1.898-0.369-3.158
			C114.613,155.188,114.736,154.159,114.982,153.325z M117.205,157.717c0.023,0.51,0.1,1.002,0.225,1.476
			c0.127,0.475,0.326,0.88,0.604,1.216c0.275,0.336,0.672,0.504,1.188,0.504c0.527,0,0.934-0.168,1.215-0.504
			s0.486-0.741,0.613-1.216c0.125-0.474,0.199-0.966,0.225-1.476c0.023-0.51,0.035-0.945,0.035-1.305
			c0-0.217-0.002-0.478-0.008-0.783c-0.008-0.307-0.031-0.621-0.072-0.945c-0.043-0.324-0.104-0.645-0.18-0.963
			c-0.08-0.318-0.195-0.604-0.352-0.855s-0.355-0.455-0.594-0.611c-0.24-0.156-0.535-0.234-0.883-0.234s-0.639,0.078-0.873,0.234
			s-0.426,0.359-0.576,0.611s-0.268,0.537-0.352,0.855s-0.143,0.639-0.18,0.963c-0.035,0.324-0.057,0.639-0.062,0.945
			c-0.006,0.306-0.01,0.566-0.01,0.783C117.168,156.772,117.182,157.208,117.205,157.717z"/>
		<path fill="#010101" d="M124.99,153.325c0.246-0.834,0.578-1.502,0.998-2.007c0.42-0.504,0.91-0.864,1.467-1.079
			c0.559-0.217,1.15-0.324,1.773-0.324c0.637,0,1.232,0.107,1.791,0.324c0.559,0.215,1.051,0.575,1.477,1.079
			c0.426,0.505,0.762,1.173,1.008,2.007s0.369,1.863,0.369,3.088c0,1.26-0.123,2.312-0.369,3.158s-0.582,1.521-1.008,2.025
			s-0.918,0.863-1.477,1.08c-0.559,0.216-1.154,0.324-1.791,0.324c-0.623,0-1.215-0.108-1.773-0.324
			c-0.557-0.217-1.047-0.576-1.467-1.08s-0.752-1.18-0.998-2.025s-0.369-1.898-0.369-3.158
			C124.621,155.188,124.744,154.159,124.99,153.325z M127.213,157.717c0.023,0.51,0.1,1.002,0.225,1.476
			c0.127,0.475,0.326,0.88,0.604,1.216c0.275,0.336,0.672,0.504,1.188,0.504c0.527,0,0.934-0.168,1.215-0.504
			s0.486-0.741,0.613-1.216c0.125-0.474,0.199-0.966,0.225-1.476c0.023-0.51,0.035-0.945,0.035-1.305
			c0-0.217-0.002-0.478-0.008-0.783c-0.008-0.307-0.031-0.621-0.072-0.945c-0.043-0.324-0.104-0.645-0.18-0.963
			c-0.08-0.318-0.195-0.604-0.352-0.855s-0.355-0.455-0.594-0.611c-0.24-0.156-0.535-0.234-0.883-0.234s-0.639,0.078-0.873,0.234
			s-0.426,0.359-0.576,0.611s-0.268,0.537-0.352,0.855s-0.143,0.639-0.18,0.963c-0.035,0.324-0.057,0.639-0.062,0.945
			c-0.006,0.306-0.01,0.566-0.01,0.783C127.176,156.772,127.189,157.208,127.213,157.717z"/>
	</g>
	<g>
		<path fill="#010101" d="M98.27,211.254v2.195h-5.418v-2.195H98.27z"/>
		<path fill="#010101" d="M105.631,206.808c-0.301-0.312-0.672-0.468-1.115-0.468c-0.457,0-0.838,0.135-1.143,0.404
			c-0.307,0.271-0.551,0.601-0.73,0.99c-0.18,0.391-0.312,0.808-0.395,1.252c-0.086,0.443-0.133,0.84-0.145,1.188l0.035,0.035
			c0.348-0.504,0.756-0.863,1.225-1.08c0.469-0.215,1.008-0.323,1.619-0.323c0.541,0,1.068,0.117,1.584,0.351
			c0.516,0.234,0.955,0.549,1.314,0.945c0.336,0.385,0.582,0.822,0.738,1.314s0.234,0.99,0.234,1.494
			c0,0.647-0.105,1.25-0.314,1.809c-0.211,0.559-0.512,1.044-0.9,1.458c-0.391,0.414-0.855,0.737-1.396,0.972
			c-0.539,0.234-1.139,0.352-1.799,0.352c-0.949,0-1.734-0.189-2.357-0.567c-0.625-0.378-1.123-0.873-1.494-1.485
			c-0.373-0.611-0.631-1.305-0.775-2.078c-0.143-0.774-0.215-1.563-0.215-2.367c0-0.78,0.09-1.561,0.27-2.34
			c0.18-0.78,0.469-1.485,0.863-2.115c0.396-0.631,0.906-1.143,1.531-1.539c0.623-0.396,1.385-0.594,2.285-0.594
			c0.541,0,1.045,0.078,1.512,0.233c0.469,0.156,0.883,0.382,1.242,0.675c0.361,0.295,0.654,0.657,0.883,1.09
			c0.227,0.432,0.377,0.93,0.449,1.494h-2.43C106.123,207.487,105.932,207.12,105.631,206.808z M103.48,210.92
			c-0.258,0.127-0.471,0.298-0.639,0.514s-0.295,0.465-0.379,0.747s-0.125,0.579-0.125,0.892c0,0.287,0.045,0.572,0.135,0.854
			s0.221,0.534,0.395,0.756s0.389,0.399,0.641,0.531s0.539,0.198,0.863,0.198c0.312,0,0.586-0.066,0.818-0.198
			c0.234-0.132,0.436-0.306,0.604-0.522c0.168-0.216,0.295-0.461,0.379-0.738c0.084-0.275,0.125-0.558,0.125-0.846
			c0-0.3-0.039-0.591-0.117-0.873c-0.078-0.281-0.195-0.533-0.35-0.756c-0.156-0.222-0.357-0.402-0.604-0.54
			s-0.531-0.207-0.855-0.207C104.035,210.732,103.738,210.795,103.48,210.92z"/>
		<path fill="#010101" d="M113.137,214.495v2.771h-2.826v-2.771H113.137z"/>
		<path fill="#010101" d="M114.982,207.825c0.246-0.834,0.578-1.502,0.998-2.007c0.42-0.504,0.91-0.864,1.467-1.079
			c0.559-0.217,1.15-0.324,1.773-0.324c0.637,0,1.232,0.107,1.791,0.324c0.559,0.215,1.051,0.575,1.477,1.079
			c0.426,0.505,0.762,1.173,1.008,2.007s0.369,1.863,0.369,3.088c0,1.26-0.123,2.312-0.369,3.158s-0.582,1.521-1.008,2.025
			s-0.918,0.863-1.477,1.08c-0.559,0.216-1.154,0.324-1.791,0.324c-0.623,0-1.215-0.108-1.773-0.324
			c-0.557-0.217-1.047-0.576-1.467-1.08s-0.752-1.18-0.998-2.025s-0.369-1.898-0.369-3.158
			C114.613,209.688,114.736,208.659,114.982,207.825z M117.205,212.217c0.023,0.51,0.1,1.002,0.225,1.476
			c0.127,0.475,0.326,0.88,0.604,1.216c0.275,0.336,0.672,0.504,1.188,0.504c0.527,0,0.934-0.168,1.215-0.504
			s0.486-0.741,0.613-1.216c0.125-0.474,0.199-0.966,0.225-1.476c0.023-0.51,0.035-0.945,0.035-1.305
			c0-0.217-0.002-0.478-0.008-0.783c-0.008-0.307-0.031-0.621-0.072-0.945c-0.043-0.324-0.104-0.645-0.18-0.963
			c-0.08-0.318-0.195-0.604-0.352-0.855s-0.355-0.455-0.594-0.611c-0.24-0.156-0.535-0.234-0.883-0.234s-0.639,0.078-0.873,0.234
			s-0.426,0.359-0.576,0.611s-0.268,0.537-0.352,0.855s-0.143,0.639-0.18,0.963c-0.035,0.324-0.057,0.639-0.062,0.945
			c-0.006,0.306-0.01,0.566-0.01,0.783C117.168,211.272,117.182,211.708,117.205,212.217z"/>
		<path fill="#010101" d="M124.99,207.825c0.246-0.834,0.578-1.502,0.998-2.007c0.42-0.504,0.91-0.864,1.467-1.079
			c0.559-0.217,1.15-0.324,1.773-0.324c0.637,0,1.232,0.107,1.791,0.324c0.559,0.215,1.051,0.575,1.477,1.079
			c0.426,0.505,0.762,1.173,1.008,2.007s0.369,1.863,0.369,3.088c0,1.26-0.123,2.312-0.369,3.158s-0.582,1.521-1.008,2.025
			s-0.918,0.863-1.477,1.08c-0.559,0.216-1.154,0.324-1.791,0.324c-0.623,0-1.215-0.108-1.773-0.324
			c-0.557-0.217-1.047-0.576-1.467-1.08s-0.752-1.18-0.998-2.025s-0.369-1.898-0.369-3.158
			C124.621,209.688,124.744,208.659,124.99,207.825z M127.213,212.217c0.023,0.51,0.1,1.002,0.225,1.476
			c0.127,0.475,0.326,0.88,0.604,1.216c0.275,0.336,0.672,0.504,1.188,0.504c0.527,0,0.934-0.168,1.215-0.504
			s0.486-0.741,0.613-1.216c0.125-0.474,0.199-0.966,0.225-1.476c0.023-0.51,0.035-0.945,0.035-1.305
			c0-0.217-0.002-0.478-0.008-0.783c-0.008-0.307-0.031-0.621-0.072-0.945c-0.043-0.324-0.104-0.645-0.18-0.963
			c-0.08-0.318-0.195-0.604-0.352-0.855s-0.355-0.455-0.594-0.611c-0.24-0.156-0.535-0.234-0.883-0.234s-0.639,0.078-0.873,0.234
			s-0.426,0.359-0.576,0.611s-0.268,0.537-0.352,0.855s-0.143,0.639-0.18,0.963c-0.035,0.324-0.057,0.639-0.062,0.945
			c-0.006,0.306-0.01,0.566-0.01,0.783C127.176,211.272,127.189,211.708,127.213,212.217z"/>
	</g>
</g>
<g>
</g>
<g>
</g>
<g>
</g>
<g>
</g>
<g>
</g>
<g>
</g>
</svg>
