<?xml version="1.0" encoding="utf-8"?>
<!-- Generator: Adobe Illustrator 16.0.0, SVG Export Plug-In . SVG Version: 6.00 Build 0)  -->
<!DOCTYPE svg PUBLIC "-//W3C//DTD SVG 1.1//EN" "http://www.w3.org/Graphics/SVG/1.1/DTD/svg11.dtd">
<svg version="1.1" id="Layer_1" xmlns="http://www.w3.org/2000/svg" xmlns:xlink="http://www.w3.org/1999/xlink" x="0px" y="0px"
	 width="190px" height="238px" viewBox="0 0 190 238" enable-background="new 0 0 190 238" xml:space="preserve">
<g id="kleinste_dorp">
	<g>
		<path fill="#010101" d="M190,238h-8V29.789C182,17.571,172.413,8,160.174,8h-130C17.947,8,8,17.774,8,29.789V238H0V29.789
			C0,13.363,13.536,0,30.174,0h130C176.62,0,190,13.363,190,29.789V238z"/>
	</g>
	<path fill="#010101" d="M0,43v65h190V43H0z M186,104H4V47h182V104z"/>
	<path fill="#010101" d="M62,117v69h64v-69H62z M122,182H66v-61h56V182z"/>
	<g>
		<rect x="4" y="143" fill="#010101" width="62" height="8"/>
		<rect x="122" y="143" fill="#010101" width="64" height="8"/>
	</g>
	<g>
		<g>
			<path fill="#010101" d="M22.855,65.164v9.192l4.297-4.464h4.031l-4.68,4.56l5.209,7.848h-4.129l-3.408-5.544l-1.32,1.272V82.3
				h-3.406V65.164H22.855z"/>
		</g>
		<g>
			<path fill="#010101" d="M36.416,65.164V82.3h-3.408V65.164H36.416z"/>
		</g>
		<g>
			<path fill="#010101" d="M42.752,79.324c0.512,0.496,1.248,0.744,2.207,0.744c0.688,0,1.279-0.172,1.775-0.516
				c0.496-0.344,0.801-0.708,0.912-1.092h3c-0.479,1.488-1.215,2.552-2.207,3.192c-0.992,0.64-2.193,0.96-3.6,0.96
				c-0.977,0-1.857-0.156-2.641-0.468c-0.785-0.312-1.449-0.756-1.992-1.332c-0.545-0.576-0.965-1.264-1.26-2.064
				c-0.297-0.8-0.443-1.68-0.443-2.64c0-0.928,0.15-1.792,0.455-2.592c0.305-0.8,0.736-1.492,1.297-2.076
				c0.559-0.584,1.227-1.044,2.004-1.38c0.775-0.336,1.635-0.504,2.58-0.504c1.055,0,1.975,0.204,2.76,0.612
				c0.783,0.408,1.428,0.956,1.932,1.644s0.867,1.472,1.092,2.352c0.225,0.88,0.305,1.8,0.24,2.76H41.91
				C41.959,78.028,42.238,78.828,42.752,79.324z M46.604,72.796c-0.408-0.448-1.029-0.672-1.861-0.672
				c-0.543,0-0.994,0.092-1.355,0.276c-0.359,0.184-0.648,0.412-0.863,0.684c-0.217,0.272-0.369,0.56-0.457,0.864
				c-0.088,0.304-0.139,0.576-0.156,0.816h5.545C47.295,73.9,47.012,73.244,46.604,72.796z"/>
		</g>
		<g>
			<path fill="#010101" d="M52.975,67.972v-2.808h3.408v2.808H52.975z M56.383,69.892V82.3h-3.408V69.892H56.383z"/>
		</g>
		<g>
			<path fill="#010101" d="M62.311,69.892v1.728h0.072c0.432-0.72,0.99-1.244,1.68-1.572c0.688-0.328,1.391-0.492,2.111-0.492
				c0.912,0,1.66,0.124,2.244,0.372c0.584,0.249,1.045,0.592,1.381,1.032s0.57,0.976,0.707,1.608c0.137,0.632,0.203,1.332,0.203,2.1
				V82.3h-3.406v-7.008c0-1.024-0.16-1.788-0.48-2.292c-0.32-0.504-0.889-0.756-1.705-0.756c-0.928,0-1.6,0.276-2.016,0.828
				c-0.416,0.552-0.623,1.46-0.623,2.724V82.3H59.07V69.892H62.311z"/>
		</g>
		<g>
			<path fill="#010101" d="M76.17,79.216c0.15,0.264,0.348,0.48,0.588,0.648s0.516,0.292,0.828,0.372
				c0.311,0.08,0.635,0.12,0.971,0.12c0.24,0,0.492-0.028,0.756-0.084c0.266-0.056,0.504-0.144,0.721-0.264s0.396-0.28,0.541-0.48
				c0.143-0.2,0.215-0.452,0.215-0.756c0-0.512-0.34-0.896-1.02-1.152c-0.68-0.255-1.629-0.512-2.844-0.768
				c-0.496-0.111-0.98-0.244-1.453-0.396c-0.471-0.152-0.891-0.352-1.26-0.6c-0.367-0.248-0.664-0.56-0.887-0.936
				c-0.225-0.376-0.336-0.836-0.336-1.38c0-0.8,0.154-1.456,0.467-1.968c0.312-0.512,0.725-0.916,1.236-1.212
				c0.512-0.296,1.088-0.504,1.729-0.624c0.639-0.12,1.295-0.18,1.967-0.18s1.324,0.064,1.957,0.192
				c0.631,0.128,1.195,0.344,1.691,0.648s0.908,0.708,1.236,1.212s0.523,1.14,0.588,1.908h-3.24c-0.047-0.656-0.297-1.1-0.744-1.332
				c-0.447-0.231-0.977-0.348-1.584-0.348c-0.191,0-0.4,0.012-0.623,0.036c-0.225,0.024-0.43,0.076-0.613,0.156
				s-0.34,0.196-0.467,0.348c-0.129,0.152-0.193,0.356-0.193,0.612c0,0.304,0.113,0.552,0.336,0.744
				c0.225,0.192,0.518,0.348,0.877,0.468s0.771,0.228,1.236,0.324c0.463,0.096,0.936,0.2,1.416,0.312
				c0.496,0.112,0.98,0.248,1.451,0.408c0.473,0.16,0.893,0.372,1.26,0.636c0.369,0.264,0.664,0.592,0.889,0.984
				c0.225,0.392,0.336,0.876,0.336,1.452c0,0.816-0.164,1.5-0.492,2.052c-0.328,0.552-0.756,0.996-1.283,1.332
				c-0.529,0.336-1.133,0.572-1.812,0.708s-1.373,0.204-2.076,0.204c-0.721,0-1.424-0.072-2.111-0.216
				c-0.689-0.144-1.301-0.384-1.836-0.72c-0.537-0.336-0.977-0.78-1.32-1.332c-0.344-0.552-0.533-1.244-0.564-2.076h3.24
				C75.941,78.636,76.018,78.952,76.17,79.216z"/>
		</g>
		<g>
			<path fill="#010101" d="M93.006,69.892v2.28H90.51v6.144c0,0.576,0.096,0.96,0.287,1.152s0.576,0.288,1.152,0.288
				c0.191,0,0.375-0.008,0.553-0.024c0.176-0.016,0.344-0.04,0.504-0.072v2.64c-0.289,0.048-0.609,0.08-0.961,0.096
				c-0.352,0.016-0.695,0.024-1.031,0.024c-0.529,0-1.029-0.036-1.5-0.108c-0.473-0.072-0.889-0.212-1.248-0.42
				c-0.361-0.208-0.645-0.504-0.854-0.888c-0.207-0.384-0.311-0.888-0.311-1.512v-7.32h-2.064v-2.28h2.064v-3.72h3.408v3.72H93.006z
				"/>
		</g>
		<g>
			<path fill="#010101" d="M98.285,79.324c0.512,0.496,1.248,0.744,2.207,0.744c0.688,0,1.279-0.172,1.775-0.516
				c0.496-0.344,0.801-0.708,0.912-1.092h3c-0.479,1.488-1.215,2.552-2.207,3.192c-0.992,0.64-2.193,0.96-3.6,0.96
				c-0.977,0-1.857-0.156-2.641-0.468c-0.785-0.312-1.449-0.756-1.992-1.332c-0.545-0.576-0.965-1.264-1.26-2.064
				c-0.297-0.8-0.443-1.68-0.443-2.64c0-0.928,0.15-1.792,0.455-2.592c0.305-0.8,0.736-1.492,1.297-2.076
				c0.559-0.584,1.227-1.044,2.004-1.38c0.775-0.336,1.635-0.504,2.58-0.504c1.055,0,1.975,0.204,2.76,0.612
				c0.783,0.408,1.428,0.956,1.932,1.644s0.867,1.472,1.092,2.352c0.225,0.88,0.305,1.8,0.24,2.76h-8.953
				C97.492,78.028,97.771,78.828,98.285,79.324z M102.137,72.796c-0.408-0.448-1.029-0.672-1.861-0.672
				c-0.543,0-0.994,0.092-1.355,0.276c-0.359,0.184-0.648,0.412-0.863,0.684c-0.217,0.272-0.369,0.56-0.457,0.864
				c-0.088,0.304-0.139,0.576-0.156,0.816h5.545C102.828,73.9,102.545,73.244,102.137,72.796z"/>
		</g>
		<g>
			<path fill="#010101" d="M123.891,80.716c-0.398,0.672-0.924,1.156-1.57,1.452c-0.648,0.296-1.381,0.444-2.197,0.444
				c-0.928,0-1.744-0.18-2.447-0.54c-0.705-0.36-1.285-0.848-1.74-1.464c-0.455-0.616-0.801-1.324-1.031-2.124
				c-0.232-0.8-0.35-1.632-0.35-2.496c0-0.832,0.117-1.636,0.35-2.412c0.23-0.776,0.576-1.46,1.031-2.052s1.027-1.068,1.717-1.428
				c0.688-0.36,1.486-0.54,2.398-0.54c0.736,0,1.438,0.156,2.102,0.468c0.662,0.312,1.188,0.772,1.57,1.38h0.049v-6.24h3.408V82.3
				h-3.24v-1.584H123.891z M123.748,74.584c-0.096-0.472-0.26-0.888-0.492-1.248c-0.232-0.36-0.533-0.652-0.9-0.876
				s-0.832-0.336-1.393-0.336c-0.559,0-1.031,0.112-1.416,0.336c-0.383,0.224-0.691,0.52-0.924,0.888
				c-0.232,0.368-0.4,0.789-0.504,1.26c-0.104,0.472-0.156,0.964-0.156,1.476c0,0.48,0.057,0.96,0.168,1.44
				c0.113,0.48,0.293,0.908,0.541,1.284c0.248,0.376,0.561,0.681,0.936,0.912c0.375,0.232,0.828,0.348,1.355,0.348
				c0.561,0,1.029-0.112,1.404-0.336c0.377-0.224,0.676-0.524,0.9-0.9s0.385-0.804,0.48-1.284s0.143-0.976,0.143-1.488
				C123.891,75.548,123.844,75.056,123.748,74.584z"/>
		</g>
		<g>
			<path fill="#010101" d="M129.82,73.408c0.303-0.808,0.734-1.496,1.295-2.064c0.561-0.568,1.232-1.008,2.016-1.32
				c0.785-0.312,1.664-0.468,2.641-0.468s1.859,0.156,2.652,0.468c0.791,0.312,1.467,0.752,2.027,1.32
				c0.561,0.568,0.992,1.256,1.297,2.064c0.303,0.808,0.455,1.708,0.455,2.7s-0.152,1.888-0.455,2.688
				c-0.305,0.8-0.736,1.484-1.297,2.052c-0.561,0.568-1.236,1.004-2.027,1.308c-0.793,0.304-1.676,0.456-2.652,0.456
				s-1.855-0.152-2.641-0.456c-0.783-0.304-1.455-0.74-2.016-1.308c-0.561-0.567-0.992-1.251-1.295-2.052
				c-0.305-0.8-0.457-1.696-0.457-2.688S129.516,74.216,129.82,73.408z M132.916,77.56c0.096,0.472,0.26,0.896,0.492,1.272
				c0.23,0.376,0.539,0.676,0.924,0.9c0.383,0.224,0.863,0.336,1.439,0.336s1.061-0.112,1.453-0.336
				c0.391-0.224,0.703-0.524,0.936-0.9c0.23-0.376,0.395-0.8,0.492-1.272c0.096-0.472,0.143-0.956,0.143-1.452
				s-0.047-0.984-0.143-1.464c-0.098-0.48-0.262-0.904-0.492-1.272c-0.232-0.368-0.545-0.667-0.936-0.9
				c-0.393-0.231-0.877-0.348-1.453-0.348s-1.057,0.116-1.439,0.348c-0.385,0.232-0.693,0.532-0.924,0.9
				c-0.232,0.369-0.396,0.792-0.492,1.272c-0.096,0.48-0.145,0.968-0.145,1.464S132.82,77.088,132.916,77.56z"/>
		</g>
		<g>
			<path fill="#010101" d="M147.652,69.892v2.304h0.047c0.16-0.384,0.377-0.74,0.648-1.068c0.271-0.328,0.584-0.608,0.936-0.84
				c0.352-0.231,0.729-0.412,1.129-0.54c0.398-0.128,0.816-0.192,1.248-0.192c0.223,0,0.471,0.04,0.744,0.12v3.168
				c-0.16-0.032-0.354-0.06-0.576-0.084c-0.225-0.024-0.441-0.036-0.648-0.036c-0.623,0-1.152,0.104-1.584,0.312
				c-0.432,0.208-0.779,0.492-1.045,0.852c-0.264,0.36-0.451,0.78-0.562,1.26c-0.113,0.48-0.168,1-0.168,1.56V82.3h-3.408V69.892
				H147.652z"/>
		</g>
		<g>
			<path fill="#010101" d="M156.988,69.892v1.584h0.047c0.416-0.672,0.945-1.16,1.584-1.464c0.641-0.304,1.344-0.456,2.113-0.456
				c0.975,0,1.814,0.184,2.52,0.552c0.703,0.368,1.287,0.856,1.752,1.464c0.463,0.608,0.807,1.316,1.031,2.124
				c0.225,0.808,0.336,1.652,0.336,2.532c0,0.832-0.111,1.632-0.336,2.4s-0.564,1.448-1.02,2.04s-1.023,1.064-1.703,1.416
				c-0.682,0.352-1.477,0.528-2.389,0.528c-0.768,0-1.477-0.156-2.125-0.468c-0.646-0.312-1.18-0.772-1.596-1.38h-0.047v5.88h-3.408
				V69.892H156.988z M161.416,79.732c0.375-0.224,0.68-0.516,0.912-0.876c0.23-0.36,0.396-0.78,0.492-1.26s0.143-0.968,0.143-1.464
				c0-0.496-0.051-0.984-0.154-1.464c-0.105-0.48-0.277-0.908-0.518-1.284s-0.547-0.68-0.924-0.912
				c-0.375-0.231-0.836-0.348-1.379-0.348c-0.561,0-1.029,0.116-1.404,0.348c-0.377,0.232-0.68,0.532-0.912,0.9
				c-0.232,0.369-0.396,0.792-0.492,1.272c-0.096,0.48-0.145,0.976-0.145,1.488c0,0.496,0.053,0.984,0.156,1.464
				s0.271,0.9,0.504,1.26c0.232,0.36,0.541,0.652,0.924,0.876c0.385,0.224,0.848,0.336,1.393,0.336
				C160.572,80.068,161.039,79.956,161.416,79.732z"/>
		</g>
	</g>
	<g>
		<path fill="#010101" d="M94.174,172.17c-11.515,0-20.883-9.367-20.883-20.881c0-11.515,9.368-20.883,20.883-20.883
			c11.514,0,20.881,9.368,20.881,20.883C115.055,162.803,105.688,172.17,94.174,172.17z M94.174,131.407
			c-10.964,0-19.883,8.92-19.883,19.883s8.919,19.881,19.883,19.881c10.962,0,19.881-8.918,19.881-19.881
			S105.136,131.407,94.174,131.407z"/>
	</g>
	<g>
		<path fill="#010101" d="M84.478,146.206c0.279-0.48,0.643-0.88,1.09-1.199c0.446-0.32,0.95-0.561,1.51-0.721
			c0.561-0.16,1.127-0.24,1.7-0.24c0.866,0,1.6,0.134,2.2,0.4c0.6,0.267,1.083,0.59,1.45,0.97c0.366,0.38,0.63,0.787,0.789,1.22
			c0.16,0.434,0.24,0.824,0.24,1.17c0,0.693-0.17,1.301-0.51,1.82s-0.85,0.894-1.53,1.12v0.04c0.84,0.188,1.487,0.584,1.94,1.189
			c0.453,0.607,0.68,1.351,0.68,2.23c0,0.747-0.149,1.394-0.45,1.939c-0.3,0.547-0.696,1-1.189,1.361
			c-0.493,0.359-1.054,0.629-1.681,0.81c-0.626,0.18-1.267,0.27-1.92,0.27c-0.68,0-1.337-0.083-1.97-0.25
			c-0.634-0.167-1.2-0.43-1.7-0.79c-0.5-0.359-0.899-0.812-1.199-1.359c-0.301-0.547-0.45-1.2-0.45-1.961
			c0-0.893,0.229-1.64,0.689-2.239c0.46-0.601,1.11-1,1.95-1.2v-0.04c-0.68-0.187-1.193-0.54-1.54-1.06
			c-0.347-0.521-0.52-1.127-0.52-1.82C84.058,147.239,84.197,146.686,84.478,146.206z M86.518,155.066
			c0.133,0.293,0.31,0.543,0.529,0.75c0.221,0.206,0.483,0.366,0.79,0.479s0.627,0.17,0.96,0.17c0.347,0,0.663-0.057,0.95-0.17
			s0.54-0.273,0.76-0.479c0.221-0.207,0.391-0.457,0.511-0.75c0.12-0.294,0.18-0.613,0.18-0.96c0-0.334-0.063-0.637-0.19-0.91
			c-0.126-0.273-0.3-0.51-0.52-0.71s-0.474-0.354-0.76-0.46c-0.287-0.107-0.597-0.16-0.931-0.16c-0.693,0-1.279,0.189-1.76,0.57
			c-0.479,0.38-0.72,0.93-0.72,1.649C86.317,154.446,86.384,154.772,86.518,155.066z M87.277,149.496
			c0.427,0.313,0.927,0.47,1.5,0.47c0.6,0,1.1-0.156,1.5-0.47s0.6-0.771,0.6-1.37c0-0.187-0.026-0.39-0.08-0.609
			c-0.053-0.221-0.156-0.431-0.31-0.631c-0.153-0.199-0.367-0.366-0.64-0.5c-0.273-0.133-0.631-0.199-1.07-0.199
			c-0.28,0-0.55,0.043-0.811,0.13c-0.26,0.087-0.489,0.21-0.689,0.37s-0.357,0.359-0.47,0.6c-0.114,0.24-0.17,0.52-0.17,0.84
			C86.638,148.725,86.851,149.182,87.277,149.496z"/>
		<path fill="#010101" d="M98.317,155.946c0.333,0.347,0.746,0.52,1.24,0.52c0.52,0,0.946-0.149,1.279-0.449
			c0.334-0.301,0.601-0.667,0.801-1.101c0.199-0.433,0.343-0.896,0.43-1.39s0.144-0.934,0.17-1.32l-0.04-0.04
			c-0.387,0.56-0.84,0.96-1.36,1.2c-0.52,0.24-1.119,0.359-1.8,0.359c-0.6,0-1.187-0.129-1.76-0.39c-0.573-0.26-1.06-0.61-1.46-1.05
			c-0.373-0.427-0.646-0.913-0.82-1.46c-0.173-0.546-0.26-1.101-0.26-1.66c0-0.72,0.116-1.39,0.35-2.01s0.567-1.16,1-1.62
			c0.434-0.46,0.95-0.823,1.551-1.09c0.6-0.267,1.267-0.4,2-0.4c1.066,0,1.942,0.211,2.63,0.631c0.687,0.42,1.236,0.973,1.649,1.659
			s0.7,1.464,0.86,2.33c0.16,0.867,0.24,1.74,0.24,2.62c0,0.867-0.101,1.733-0.3,2.6c-0.2,0.867-0.521,1.65-0.96,2.351
			c-0.44,0.7-1.007,1.267-1.7,1.7c-0.693,0.433-1.54,0.649-2.54,0.649c-0.601,0-1.16-0.083-1.681-0.25
			c-0.52-0.167-0.979-0.417-1.38-0.75c-0.399-0.333-0.727-0.739-0.979-1.22c-0.254-0.48-0.42-1.026-0.5-1.641h2.7
			C97.771,155.192,97.984,155.599,98.317,155.946z M100.718,151.375c0.279-0.14,0.513-0.33,0.699-0.57
			c0.187-0.239,0.327-0.516,0.42-0.83c0.094-0.312,0.141-0.643,0.141-0.989c0-0.32-0.05-0.637-0.15-0.95
			c-0.1-0.312-0.247-0.594-0.439-0.84c-0.193-0.246-0.431-0.443-0.71-0.59c-0.28-0.146-0.601-0.221-0.96-0.221
			c-0.334,0-0.634,0.074-0.9,0.221s-0.493,0.34-0.68,0.58c-0.188,0.24-0.327,0.514-0.42,0.82c-0.094,0.307-0.141,0.619-0.141,0.939
			c0,0.334,0.043,0.656,0.13,0.97s0.217,0.594,0.391,0.841c0.173,0.246,0.396,0.446,0.67,0.6c0.272,0.153,0.59,0.229,0.95,0.229
			C100.104,151.585,100.438,151.516,100.718,151.375z"/>
	</g>
</g>
<g>
</g>
<g>
</g>
<g>
</g>
<g>
</g>
<g>
</g>
<g>
</g>
</svg>
