<?xml version="1.0" encoding="utf-8"?>
<!-- Generator: Adobe Illustrator 16.0.0, SVG Export Plug-In . SVG Version: 6.00 Build 0)  -->
<!DOCTYPE svg PUBLIC "-//W3C//DTD SVG 1.1//EN" "http://www.w3.org/Graphics/SVG/1.1/DTD/svg11.dtd">
<svg version="1.1" id="Layer_1" xmlns="http://www.w3.org/2000/svg" xmlns:xlink="http://www.w3.org/1999/xlink" x="0px" y="0px"
	 width="403.266px" height="215.192px" viewBox="0 0 403.266 215.192" enable-background="new 0 0 403.266 215.192"
	 xml:space="preserve">
<g id="langste_brug">
	<g>
		<path fill="#010101" d="M113.476,166.555h-74v-37h74V166.555z M47.476,158.555h58v-21h-58V158.555z"/>
	</g>
	<g>
		<path fill="#010101" d="M95.476,137.555h-37v-46h37V137.555z M66.476,129.555h21v-30h-21V129.555z"/>
	</g>
	<g>
		<path fill="#010101" d="M362.476,166.555h-74v-37h74V166.555z M296.476,158.555h58v-21h-58V158.555z"/>
	</g>
	<g>
		<path fill="#010101" d="M344.476,137.555h-37v-46h37V137.555z M315.476,129.555h21v-30h-21V129.555z"/>
	</g>
	<g>
		<rect x="0.476" y="31.555" fill="#010101" width="402" height="8"/>
	</g>
	<g>
		<path fill="#010101" d="M308.286,97.794c-0.191-0.287-20.2-28.689-106.652-28.689S95.172,97.507,94.981,97.794l-6.718-4.344
			c0.845-1.321,21.733-32.345,113.37-32.345s112.525,31.024,113.37,32.345L308.286,97.794z"/>
	</g>
	<g>
		<path fill="#010101" d="M59.286,97.794C59.167,97.617,46.912,80.028,0,72.508l1.267-7.899c50.999,8.176,64.2,28.001,64.737,28.841
			L59.286,97.794z"/>
	</g>
	<g>
		<path fill="#010101" d="M344.003,97.759l-6.74-4.31C337.8,92.61,351.001,72.784,402,64.608l1.266,7.899
			C355.772,80.122,344.116,97.583,344.003,97.759z"/>
	</g>
	<g>
		<rect x="8.476" y="4.555" fill="#010101" width="385" height="1"/>
	</g>
	<g>
		<polygon fill="#010101" points="8.476,9.653 0.117,4.827 8.476,0 		"/>
	</g>
	<g>
		<polygon fill="#010101" points="393.476,9.653 401.835,4.827 393.476,0 		"/>
	</g>
	<g>
		<path fill="#010101" d="M101.011,215.192c-0.069,0-0.139,0-0.208-0.002c-5.572-0.111-9.679-4.646-13.786-9.951
			c-8.733,13.066-24.434,9.277-24.601,9.233l0.982-3.878l-0.491,1.939l0.486-1.94c0.603,0.149,14.831,3.508,21.62-9.845l1.447-2.844
			l2.042,2.69c4.28,5.639,7.977,10.508,12.379,10.596c3.667,0.04,8.024-3.057,13.384-9.563l1.797-2.182l1.46,2.42
			c0.374,0.621,0.733,1.25,1.091,1.877c3.566,6.248,6.143,10.762,21.802,2.957l1.785,3.58c-17.188,8.564-22.257,3.674-26.706-3.939
			C110.11,212.36,105.461,215.192,101.011,215.192z"/>
	</g>
	<g>
		<path fill="#010101" d="M209.011,156.192c-0.069,0-0.139,0-0.208-0.002c-5.572-0.111-9.679-4.646-13.786-9.951
			c-8.732,13.066-24.434,9.277-24.601,9.233l0.982-3.878l-0.491,1.939l0.486-1.94c0.604,0.15,14.831,3.509,21.62-9.845l1.447-2.844
			l2.042,2.69c4.28,5.639,7.977,10.508,12.379,10.596c3.655,0.054,8.023-3.056,13.384-9.563l1.797-2.182l1.46,2.42
			c0.374,0.621,0.733,1.25,1.091,1.877c3.565,6.248,6.144,10.762,21.802,2.957l1.785,3.58c-17.187,8.564-22.258,3.674-26.706-3.939
			C218.11,153.36,213.461,156.192,209.011,156.192z"/>
	</g>
</g>
<g>
</g>
<g>
</g>
<g>
</g>
<g>
</g>
<g>
</g>
<g>
</g>
</svg>
