<?xml version="1.0" encoding="utf-8"?>
<!-- Generator: Adobe Illustrator 16.0.0, SVG Export Plug-In . SVG Version: 6.00 Build 0)  -->
<!DOCTYPE svg PUBLIC "-//W3C//DTD SVG 1.1//EN" "http://www.w3.org/Graphics/SVG/1.1/DTD/svg11.dtd">
<svg version="1.1" id="Layer_1" xmlns="http://www.w3.org/2000/svg" xmlns:xlink="http://www.w3.org/1999/xlink" x="0px" y="0px"
	 width="202.854px" height="253.871px" viewBox="0 0 202.854 253.871" enable-background="new 0 0 202.854 253.871"
	 xml:space="preserve">
<g id="decibelmeter">
	<g>
		<path fill="#010101" d="M101.427,253.871l-4.345-3.136C84.082,240.952,0,177.605,0,101.333C0,45.458,45.582,0,101.457,0
			c55.876,0,101.396,45.458,101.396,101.333c0,33.859-17.123,70.654-49.577,106.408c-24.333,26.807-48.177,43.521-49.192,44.219
			L101.427,253.871z M101.582,8C50.118,8,8.25,49.869,8.25,101.333c0,40.129,25.733,76.963,47.321,100.799
			c19.713,21.764,39.418,36.812,46.007,41.615c6.554-4.795,26.313-19.91,45.806-41.383c21.684-23.889,47.532-60.808,47.532-101.031
			C194.916,49.869,153.047,8,101.582,8z"/>
	</g>
	<g>
		<path fill="#010101" d="M65.071,111.754L28.227,74.687l2.301-2.795c17.559-21.327,43.457-33.558,71.055-33.558
			c27.558,0,53.433,12.202,70.991,33.478l0.101,0.126l2.111,2.78l-2.41,2.545l-34.354,34.354l-2.715-4.018
			c-7.586-11.229-20.193-17.932-33.725-17.932c-13.581,0-26.214,6.742-33.792,18.036L65.071,111.754z M39.059,74.236l24.979,25.129
			c9.205-11.161,22.914-17.699,37.543-17.699c14.581,0,28.266,6.503,37.472,17.605L164.1,74.224
			c-15.913-17.752-38.517-27.891-62.518-27.891C77.592,46.333,55.005,56.459,39.059,74.236z"/>
	</g>
	<g>
		<circle fill="#010101" cx="101.581" cy="116" r="12.001"/>
	</g>
	<g>
		<polygon fill="#010101" points="82.184,88.417 70.143,97.981 59.162,71.793 		"/>
	</g>
	<g>
		<g>
			<path fill="#010101" d="M90.543,181.073c-0.801,1.345-1.848,2.313-3.145,2.905s-2.762,0.889-4.395,0.889
				c-1.857,0-3.49-0.36-4.898-1.081c-1.41-0.721-2.57-1.696-3.482-2.93c-0.912-1.231-1.602-2.648-2.064-4.25
				c-0.465-1.601-0.697-3.266-0.697-4.994c0-1.664,0.232-3.273,0.697-4.827c0.463-1.552,1.152-2.921,2.064-4.106
				c0.912-1.184,2.057-2.137,3.434-2.857s2.979-1.08,4.803-1.08c1.473,0,2.873,0.312,4.203,0.937
				c1.326,0.624,2.377,1.544,3.145,2.761h0.096v-12.486h6.82v34.291h-6.482v-3.17H90.543z M90.256,168.803
				c-0.191-0.944-0.521-1.776-0.984-2.497c-0.465-0.721-1.064-1.305-1.801-1.754c-0.738-0.447-1.666-0.672-2.787-0.672
				c-1.119,0-2.064,0.225-2.834,0.672c-0.768,0.449-1.383,1.041-1.848,1.777s-0.801,1.577-1.008,2.521
				c-0.209,0.945-0.312,1.93-0.312,2.953c0,0.961,0.111,1.922,0.336,2.882c0.223,0.96,0.584,1.817,1.08,2.569
				s1.121,1.361,1.873,1.825s1.658,0.696,2.713,0.696c1.121,0,2.057-0.224,2.811-0.672c0.752-0.449,1.352-1.049,1.801-1.801
				c0.447-0.752,0.77-1.609,0.961-2.57s0.287-1.953,0.287-2.977C90.543,170.731,90.447,169.747,90.256,168.803z"/>
		</g>
		<g>
			<path fill="#010101" d="M119.119,149.952c1.631,0,3.121,0.145,4.465,0.432c1.346,0.289,2.498,0.762,3.459,1.418
				c0.959,0.656,1.705,1.529,2.232,2.617c0.529,1.088,0.793,2.434,0.793,4.033c0,1.729-0.393,3.17-1.178,4.323
				c-0.783,1.152-1.943,2.097-3.48,2.833c2.113,0.609,3.689,1.674,4.73,3.194c1.039,1.521,1.561,3.354,1.561,5.499
				c0,1.729-0.336,3.226-1.008,4.49c-0.672,1.266-1.578,2.297-2.715,3.098s-2.434,1.393-3.889,1.777
				c-1.459,0.383-2.955,0.576-4.492,0.576h-16.615v-34.291H119.119z M118.158,163.831c1.344,0,2.449-0.318,3.314-0.959
				c0.863-0.641,1.297-1.682,1.297-3.123c0-0.799-0.145-1.456-0.434-1.969c-0.289-0.512-0.672-0.912-1.152-1.201
				c-0.48-0.287-1.033-0.486-1.656-0.6c-0.625-0.111-1.273-0.168-1.945-0.168h-7.061v8.02H118.158z M118.59,178.384
				c0.736,0,1.441-0.072,2.113-0.217s1.266-0.383,1.777-0.721c0.512-0.336,0.92-0.791,1.225-1.367s0.457-1.312,0.457-2.21
				c0-1.761-0.498-3.018-1.49-3.77c-0.992-0.753-2.305-1.13-3.938-1.13h-8.213v9.414H118.59z"/>
		</g>
	</g>
</g>
<g>
</g>
<g>
</g>
<g>
</g>
<g>
</g>
<g>
</g>
<g>
</g>
</svg>
