<?xml version="1.0" encoding="utf-8"?>
<!-- Generator: Adobe Illustrator 16.0.0, SVG Export Plug-In . SVG Version: 6.00 Build 0)  -->
<!DOCTYPE svg PUBLIC "-//W3C//DTD SVG 1.1//EN" "http://www.w3.org/Graphics/SVG/1.1/DTD/svg11.dtd">
<svg version="1.1" id="Layer_1" xmlns="http://www.w3.org/2000/svg" xmlns:xlink="http://www.w3.org/1999/xlink" x="0px" y="0px"
	 width="213.773px" height="254.526px" viewBox="0 0 213.773 254.526" enable-background="new 0 0 213.773 254.526"
	 xml:space="preserve">
<g id="oudste_stenenhuis">
	<g>
		<line fill="#010101" x1="24.988" y1="238.352" x2="187.988" y2="238.352"/>
		<rect x="24.988" y="237.352" fill="#010101" width="163" height="1"/>
	</g>
	<g>
		<polygon fill="#010101" points="159.988,186.352 151.988,186.352 151.988,112.352 126.988,112.352 126.988,186.352 
			118.988,186.352 118.988,104.352 159.988,104.352 		"/>
	</g>
	<g>
		<polygon fill="#010101" points="209.18,81.507 106.887,9.771 4.594,81.507 0,74.958 106.887,0 213.773,74.958 		"/>
	</g>
	<g>
		<g>
			<rect x="20.988" y="63.352" fill="#010101" width="8" height="126"/>
		</g>
		<g>
			<rect x="183.988" y="60.352" fill="#010101" width="8" height="124"/>
		</g>
	</g>
	<g>
		<rect x="174.988" y="25.352" fill="#010101" width="8" height="30"/>
	</g>
	<g>
		<circle fill="#010101" cx="24.963" cy="237.399" r="3.667"/>
	</g>
	<g>
		<circle fill="#010101" cx="36.963" cy="237.399" r="3.667"/>
		<path fill="#010101" d="M36.963,241.566c-2.298,0-4.167-1.869-4.167-4.167s1.869-4.167,4.167-4.167s4.167,1.869,4.167,4.167
			S39.261,241.566,36.963,241.566z M36.963,234.232c-1.746,0-3.167,1.421-3.167,3.167s1.421,3.167,3.167,3.167
			s3.167-1.421,3.167-3.167S38.709,234.232,36.963,234.232z"/>
	</g>
	<g>
		<circle fill="#010101" cx="187.963" cy="237.399" r="3.667"/>
	</g>
	<g>
		<path fill="#010101" d="M17.213,254.409v-4.086h-1.584v-0.963c0.222,0.006,0.437-0.012,0.644-0.051s0.393-0.107,0.558-0.207
			c0.165-0.098,0.305-0.229,0.419-0.391s0.188-0.363,0.225-0.604h1.018v6.301H17.213z"/>
		<path fill="#010101" d="M22.217,254.409v-4.086h-1.584v-0.963c0.222,0.006,0.437-0.012,0.644-0.051s0.393-0.107,0.558-0.207
			c0.165-0.098,0.305-0.229,0.419-0.391s0.188-0.363,0.225-0.604h1.018v6.301H22.217z"/>
		<path fill="#010101" d="M25.344,249.688c0.123-0.418,0.29-0.752,0.5-1.004s0.454-0.432,0.733-0.54s0.574-0.161,0.887-0.161
			c0.317,0,0.616,0.053,0.896,0.161s0.524,0.288,0.738,0.54c0.213,0.252,0.381,0.586,0.504,1.004
			c0.122,0.417,0.185,0.932,0.185,1.543c0,0.631-0.062,1.156-0.185,1.58c-0.123,0.423-0.291,0.76-0.504,1.012
			c-0.214,0.252-0.459,0.433-0.738,0.541c-0.279,0.107-0.578,0.162-0.896,0.162c-0.312,0-0.607-0.055-0.887-0.162
			c-0.279-0.108-0.523-0.289-0.733-0.541s-0.377-0.589-0.5-1.012c-0.123-0.424-0.184-0.949-0.184-1.58
			C25.16,250.62,25.221,250.105,25.344,249.688z M26.456,251.883c0.012,0.256,0.049,0.502,0.112,0.738
			c0.062,0.237,0.163,0.439,0.302,0.607c0.138,0.168,0.336,0.252,0.594,0.252c0.264,0,0.466-0.084,0.607-0.252
			c0.141-0.168,0.243-0.37,0.306-0.607c0.063-0.236,0.101-0.482,0.112-0.738c0.013-0.254,0.019-0.473,0.019-0.652
			c0-0.107-0.002-0.238-0.005-0.391c-0.003-0.154-0.015-0.311-0.036-0.473c-0.021-0.162-0.051-0.322-0.09-0.482
			c-0.039-0.158-0.098-0.301-0.175-0.428c-0.078-0.125-0.178-0.227-0.298-0.305s-0.267-0.117-0.44-0.117s-0.319,0.039-0.437,0.117
			s-0.213,0.18-0.288,0.305c-0.075,0.127-0.134,0.27-0.176,0.428c-0.042,0.16-0.071,0.32-0.09,0.482
			c-0.018,0.162-0.028,0.318-0.031,0.473c-0.003,0.152-0.005,0.283-0.005,0.391C26.438,251.411,26.443,251.629,26.456,251.883z"/>
		<path fill="#010101" d="M30.348,249.688c0.123-0.418,0.29-0.752,0.5-1.004s0.454-0.432,0.733-0.54s0.574-0.161,0.887-0.161
			c0.317,0,0.616,0.053,0.896,0.161s0.524,0.288,0.738,0.54c0.213,0.252,0.381,0.586,0.504,1.004
			c0.122,0.417,0.185,0.932,0.185,1.543c0,0.631-0.062,1.156-0.185,1.58c-0.123,0.423-0.291,0.76-0.504,1.012
			c-0.214,0.252-0.459,0.433-0.738,0.541c-0.279,0.107-0.578,0.162-0.896,0.162c-0.312,0-0.607-0.055-0.887-0.162
			c-0.279-0.108-0.523-0.289-0.733-0.541s-0.377-0.589-0.5-1.012c-0.123-0.424-0.184-0.949-0.184-1.58
			C30.164,250.62,30.225,250.105,30.348,249.688z M31.46,251.883c0.012,0.256,0.049,0.502,0.112,0.738
			c0.062,0.237,0.163,0.439,0.302,0.607c0.138,0.168,0.336,0.252,0.594,0.252c0.264,0,0.466-0.084,0.607-0.252
			c0.141-0.168,0.243-0.37,0.306-0.607c0.063-0.236,0.101-0.482,0.112-0.738c0.013-0.254,0.019-0.473,0.019-0.652
			c0-0.107-0.002-0.238-0.005-0.391c-0.003-0.154-0.015-0.311-0.036-0.473c-0.021-0.162-0.051-0.322-0.09-0.482
			c-0.039-0.158-0.098-0.301-0.175-0.428c-0.078-0.125-0.178-0.227-0.298-0.305s-0.267-0.117-0.44-0.117s-0.319,0.039-0.437,0.117
			s-0.213,0.18-0.288,0.305c-0.075,0.127-0.134,0.27-0.176,0.428c-0.042,0.16-0.071,0.32-0.09,0.482
			c-0.018,0.162-0.028,0.318-0.031,0.473c-0.003,0.152-0.005,0.283-0.005,0.391C31.441,251.411,31.447,251.629,31.46,251.883z"/>
	</g>
	<g>
		<path fill="#010101" d="M178.672,249.526c0.096-0.309,0.24-0.579,0.432-0.811c0.192-0.23,0.434-0.41,0.725-0.539
			s0.626-0.193,1.004-0.193c0.288,0,0.562,0.045,0.823,0.135s0.49,0.219,0.688,0.387s0.355,0.375,0.473,0.621
			s0.176,0.521,0.176,0.828c0,0.318-0.052,0.591-0.153,0.818c-0.103,0.229-0.237,0.431-0.405,0.607
			c-0.168,0.178-0.358,0.338-0.571,0.482c-0.213,0.144-0.428,0.286-0.644,0.427c-0.216,0.142-0.426,0.292-0.63,0.454
			s-0.384,0.352-0.54,0.567h2.979v1.099h-4.626c0-0.366,0.052-0.685,0.157-0.955c0.104-0.27,0.247-0.511,0.428-0.725
			c0.18-0.213,0.391-0.408,0.634-0.589s0.5-0.362,0.77-0.549c0.139-0.097,0.285-0.194,0.441-0.292
			c0.156-0.1,0.298-0.209,0.428-0.329c0.129-0.12,0.236-0.255,0.323-0.405c0.087-0.149,0.131-0.32,0.131-0.513
			c0-0.306-0.089-0.544-0.266-0.716c-0.177-0.171-0.403-0.256-0.68-0.256c-0.186,0-0.343,0.043-0.472,0.131
			c-0.13,0.086-0.233,0.2-0.311,0.342c-0.078,0.141-0.134,0.297-0.167,0.467c-0.033,0.172-0.05,0.342-0.05,0.51h-1.224
			C178.534,250.169,178.576,249.834,178.672,249.526z"/>
		<path fill="#010101" d="M183.59,249.688c0.123-0.418,0.29-0.752,0.5-1.004s0.454-0.432,0.733-0.54s0.574-0.161,0.887-0.161
			c0.317,0,0.616,0.053,0.896,0.161s0.524,0.288,0.738,0.54c0.213,0.252,0.381,0.586,0.504,1.004
			c0.122,0.417,0.185,0.932,0.185,1.543c0,0.631-0.062,1.156-0.185,1.58c-0.123,0.423-0.291,0.76-0.504,1.012
			c-0.214,0.252-0.459,0.433-0.738,0.541c-0.279,0.107-0.578,0.162-0.896,0.162c-0.312,0-0.607-0.055-0.887-0.162
			c-0.279-0.108-0.523-0.289-0.733-0.541s-0.377-0.589-0.5-1.012c-0.123-0.424-0.184-0.949-0.184-1.58
			C183.406,250.62,183.467,250.105,183.59,249.688z M184.702,251.883c0.012,0.256,0.049,0.502,0.112,0.738
			c0.062,0.237,0.163,0.439,0.302,0.607c0.138,0.168,0.336,0.252,0.594,0.252c0.264,0,0.466-0.084,0.607-0.252
			c0.141-0.168,0.243-0.37,0.306-0.607c0.063-0.236,0.101-0.482,0.112-0.738c0.013-0.254,0.019-0.473,0.019-0.652
			c0-0.107-0.002-0.238-0.005-0.391c-0.003-0.154-0.015-0.311-0.036-0.473c-0.021-0.162-0.051-0.322-0.09-0.482
			c-0.039-0.158-0.098-0.301-0.175-0.428c-0.078-0.125-0.178-0.227-0.298-0.305s-0.267-0.117-0.44-0.117s-0.319,0.039-0.437,0.117
			s-0.213,0.18-0.288,0.305c-0.075,0.127-0.134,0.27-0.176,0.428c-0.042,0.16-0.071,0.32-0.09,0.482
			c-0.018,0.162-0.028,0.318-0.031,0.473c-0.003,0.152-0.005,0.283-0.005,0.391C184.684,251.411,184.689,251.629,184.702,251.883z"
			/>
		<path fill="#010101" d="M190.471,254.409v-4.086h-1.584v-0.963c0.222,0.006,0.437-0.012,0.644-0.051s0.393-0.107,0.558-0.207
			c0.165-0.098,0.305-0.229,0.419-0.391s0.188-0.363,0.225-0.604h1.018v6.301H190.471z"/>
		<path fill="#010101" d="M195.718,250.655c0.156-0.012,0.302-0.046,0.437-0.104c0.135-0.057,0.246-0.139,0.333-0.247
			s0.13-0.252,0.13-0.433c0-0.27-0.09-0.477-0.27-0.621c-0.18-0.143-0.387-0.215-0.621-0.215c-0.324,0-0.568,0.105-0.733,0.318
			c-0.165,0.214-0.244,0.482-0.238,0.807h-1.215c0.012-0.324,0.07-0.62,0.175-0.887c0.105-0.268,0.252-0.496,0.441-0.689
			c0.188-0.191,0.415-0.34,0.68-0.445c0.264-0.104,0.558-0.156,0.882-0.156c0.252,0,0.504,0.037,0.756,0.111
			c0.252,0.076,0.479,0.188,0.68,0.338s0.364,0.333,0.49,0.549c0.126,0.217,0.189,0.465,0.189,0.747c0,0.306-0.074,0.576-0.221,0.81
			c-0.147,0.234-0.368,0.394-0.662,0.478v0.019c0.349,0.078,0.621,0.246,0.819,0.504s0.297,0.566,0.297,0.927
			c0,0.33-0.064,0.624-0.193,0.882s-0.302,0.475-0.518,0.648s-0.465,0.306-0.747,0.396s-0.576,0.136-0.882,0.136
			c-0.354,0-0.677-0.052-0.968-0.154c-0.291-0.102-0.538-0.25-0.742-0.445c-0.204-0.194-0.361-0.434-0.473-0.715
			c-0.111-0.282-0.163-0.605-0.157-0.973h1.215c0.006,0.168,0.033,0.329,0.081,0.482c0.048,0.152,0.117,0.285,0.207,0.396
			c0.09,0.111,0.202,0.2,0.338,0.266c0.135,0.065,0.295,0.099,0.481,0.099c0.288,0,0.53-0.088,0.729-0.266
			c0.198-0.177,0.297-0.418,0.297-0.725c0-0.239-0.046-0.422-0.14-0.549c-0.093-0.125-0.211-0.217-0.355-0.274
			c-0.144-0.057-0.301-0.09-0.472-0.099c-0.172-0.01-0.335-0.014-0.491-0.014v-0.9C195.415,250.667,195.562,250.667,195.718,250.655
			z"/>
	</g>
</g>
<g>
</g>
<g>
</g>
<g>
</g>
<g>
</g>
<g>
</g>
<g>
</g>
</svg>
