<?xml version="1.0" encoding="utf-8"?>
<!-- Generator: Adobe Illustrator 16.0.0, SVG Export Plug-In . SVG Version: 6.00 Build 0)  -->
<!DOCTYPE svg PUBLIC "-//W3C//DTD SVG 1.1//EN" "http://www.w3.org/Graphics/SVG/1.1/DTD/svg11.dtd">
<svg version="1.1" id="Layer_1" xmlns="http://www.w3.org/2000/svg" xmlns:xlink="http://www.w3.org/1999/xlink" x="0px" y="0px"
	 width="304.497px" height="350.714px" viewBox="0 0 304.497 350.714" enable-background="new 0 0 304.497 350.714"
	 xml:space="preserve">
<g id="scheefste_toren_1_">
	<g>
		<polygon fill="#010101" points="114.742,291.028 123.859,287.854 116.553,281.546 		"/>
	</g>
	<g>
		<path fill="#010101" d="M229.977,170.742l-25.906-7.605l12.957-44.138l25.906,7.605L229.977,170.742z M214,157.714l10.555,3.098
			l8.449-28.786l-10.555-3.098L214,157.714z"/>
	</g>
	<g>
		<path fill="#010101" d="M268.358,182.007l-25.907-7.604l12.957-44.138l25.906,7.605L268.358,182.007z M252.381,168.98
			l10.554,3.098l8.45-28.785l-10.555-3.098L252.381,168.98z"/>
	</g>
	<g>
		<g>
			
				<rect x="282.262" y="-0.306" transform="matrix(0.9595 0.2815 -0.2815 0.9595 16.4608 -79.1772)" fill="#010101" width="3" height="36.001"/>
		</g>
		<g>
			
				<rect x="276.072" y="10.097" transform="matrix(0.9595 0.2816 -0.2816 0.9595 14.8452 -80.0963)" fill="#010101" width="20.001" height="3.001"/>
		</g>
	</g>
	<g>
		<polygon fill="#010101" points="105.878,350.714 0,350.714 0,349.714 105.126,349.714 134.899,246.489 135.39,245.618 
			136.261,246.109 135.827,246.878 		"/>
	</g>
	<g>
		<path fill="#010101" d="M41.127,350.714h-1c0-36,29.327-65.522,65.375-65.522c6.155,0,12.248,0.78,18.109,2.468l-0.277,0.924
			c-5.771-1.66-11.77-2.373-17.832-2.373C70.006,286.21,41.127,314.714,41.127,350.714z"/>
	</g>
	<polygon fill="#010101" points="172.98,350.714 189.525,294.352 213.514,301.393 199.035,350.714 207.373,350.714 223.443,295.97 
		184.104,284.423 164.643,350.714 	"/>
	<polygon fill="#010101" points="137.545,350.714 207.05,113.93 277.54,38.341 296.284,140.13 234.471,350.714 242.808,350.714 
		304.229,141.469 304.497,140.555 282.53,21.261 200.553,109.167 199.907,109.86 129.208,350.714 	"/>
</g>
<g>
</g>
<g>
</g>
<g>
</g>
<g>
</g>
<g>
</g>
<g>
</g>
</svg>
