<?xml version="1.0" encoding="utf-8"?>
<!-- Generator: Adobe Illustrator 16.0.0, SVG Export Plug-In . SVG Version: 6.00 Build 0)  -->
<!DOCTYPE svg PUBLIC "-//W3C//DTD SVG 1.1//EN" "http://www.w3.org/Graphics/SVG/1.1/DTD/svg11.dtd">
<svg version="1.1" id="Layer_1" xmlns="http://www.w3.org/2000/svg" xmlns:xlink="http://www.w3.org/1999/xlink" x="0px" y="0px"
	 width="255.226px" height="378.906px" viewBox="0 0 255.226 378.906" enable-background="new 0 0 255.226 378.906"
	 xml:space="preserve">
<g id="nieuwste_graanmolen">
	<g>
		<polygon fill="#010101" points="147.724,311.006 139.724,311.006 139.724,237.006 114.724,237.006 114.724,311.006 
			106.724,311.006 106.724,229.006 147.724,229.006 		"/>
	</g>
	<g>
		<line fill="#010101" x1="41.724" y1="363.006" x2="204.724" y2="363.006"/>
		<rect x="41.724" y="362.006" fill="#010101" width="163" height="1"/>
	</g>
	<g>
		<circle fill="#010101" cx="41.749" cy="361.779" r="3.667"/>
	</g>
	<g>
		<circle fill="#010101" cx="121.749" cy="361.779" r="3.667"/>
		<path fill="#010101" d="M121.749,365.946c-2.298,0-4.167-1.869-4.167-4.167s1.869-4.167,4.167-4.167s4.167,1.869,4.167,4.167
			S124.047,365.946,121.749,365.946z M121.749,358.612c-1.746,0-3.167,1.421-3.167,3.167s1.421,3.167,3.167,3.167
			s3.167-1.421,3.167-3.167S123.495,358.612,121.749,358.612z"/>
	</g>
	<g>
		<circle fill="#010101" cx="204.749" cy="361.779" r="3.667"/>
	</g>
	<g>
		<path fill="#010101" d="M32.208,373.906c0.096-0.309,0.24-0.579,0.432-0.811c0.192-0.23,0.434-0.41,0.725-0.539
			s0.626-0.193,1.004-0.193c0.288,0,0.562,0.045,0.823,0.135s0.49,0.219,0.688,0.387s0.355,0.375,0.473,0.621
			s0.176,0.521,0.176,0.828c0,0.318-0.052,0.591-0.153,0.818c-0.103,0.229-0.237,0.431-0.405,0.607
			c-0.168,0.178-0.358,0.338-0.571,0.482c-0.213,0.144-0.428,0.286-0.644,0.427c-0.216,0.142-0.426,0.292-0.63,0.454
			s-0.384,0.352-0.54,0.567h2.979v1.099h-4.626c0-0.366,0.052-0.685,0.157-0.955c0.104-0.27,0.247-0.511,0.428-0.725
			c0.18-0.213,0.391-0.408,0.634-0.589s0.5-0.362,0.77-0.549c0.139-0.097,0.285-0.194,0.441-0.292
			c0.156-0.1,0.298-0.209,0.428-0.329c0.129-0.12,0.236-0.255,0.323-0.405c0.087-0.149,0.131-0.32,0.131-0.513
			c0-0.306-0.089-0.544-0.266-0.716c-0.177-0.171-0.403-0.256-0.68-0.256c-0.186,0-0.343,0.043-0.472,0.131
			c-0.13,0.086-0.233,0.2-0.311,0.342c-0.078,0.141-0.134,0.297-0.167,0.467c-0.033,0.172-0.05,0.342-0.05,0.51h-1.224
			C32.07,374.55,32.112,374.215,32.208,373.906z"/>
		<path fill="#010101" d="M37.126,374.068c0.123-0.418,0.29-0.752,0.5-1.004s0.454-0.432,0.733-0.54s0.574-0.161,0.887-0.161
			c0.317,0,0.616,0.053,0.896,0.161s0.524,0.288,0.738,0.54c0.213,0.252,0.381,0.586,0.504,1.004
			c0.122,0.417,0.185,0.932,0.185,1.543c0,0.631-0.062,1.156-0.185,1.58c-0.123,0.423-0.291,0.76-0.504,1.012
			c-0.214,0.252-0.459,0.433-0.738,0.541c-0.279,0.107-0.578,0.162-0.896,0.162c-0.312,0-0.607-0.055-0.887-0.162
			c-0.279-0.108-0.523-0.289-0.733-0.541s-0.377-0.589-0.5-1.012c-0.123-0.424-0.184-0.949-0.184-1.58
			C36.942,375,37.003,374.485,37.126,374.068z M38.238,376.264c0.012,0.256,0.049,0.502,0.112,0.738
			c0.062,0.237,0.163,0.439,0.302,0.607c0.138,0.168,0.336,0.252,0.594,0.252c0.264,0,0.466-0.084,0.607-0.252
			c0.141-0.168,0.243-0.37,0.306-0.607c0.063-0.236,0.101-0.482,0.112-0.738c0.013-0.254,0.019-0.473,0.019-0.652
			c0-0.107-0.002-0.238-0.005-0.391c-0.003-0.154-0.015-0.311-0.036-0.473c-0.021-0.162-0.051-0.322-0.09-0.482
			c-0.039-0.158-0.098-0.301-0.175-0.428c-0.078-0.125-0.178-0.227-0.298-0.305s-0.267-0.117-0.44-0.117s-0.319,0.039-0.437,0.117
			s-0.213,0.18-0.288,0.305c-0.075,0.127-0.134,0.27-0.176,0.428c-0.042,0.16-0.071,0.32-0.09,0.482
			c-0.018,0.162-0.028,0.318-0.031,0.473c-0.003,0.152-0.005,0.283-0.005,0.391C38.22,375.791,38.226,376.01,38.238,376.264z"/>
		<path fill="#010101" d="M42.13,374.068c0.123-0.418,0.29-0.752,0.5-1.004s0.454-0.432,0.733-0.54s0.574-0.161,0.887-0.161
			c0.317,0,0.616,0.053,0.896,0.161s0.524,0.288,0.738,0.54c0.213,0.252,0.381,0.586,0.504,1.004
			c0.122,0.417,0.185,0.932,0.185,1.543c0,0.631-0.062,1.156-0.185,1.58c-0.123,0.423-0.291,0.76-0.504,1.012
			c-0.214,0.252-0.459,0.433-0.738,0.541c-0.279,0.107-0.578,0.162-0.896,0.162c-0.312,0-0.607-0.055-0.887-0.162
			c-0.279-0.108-0.523-0.289-0.733-0.541s-0.377-0.589-0.5-1.012c-0.123-0.424-0.184-0.949-0.184-1.58
			C41.946,375,42.007,374.485,42.13,374.068z M43.242,376.264c0.012,0.256,0.049,0.502,0.112,0.738
			c0.062,0.237,0.163,0.439,0.302,0.607c0.138,0.168,0.336,0.252,0.594,0.252c0.264,0,0.466-0.084,0.607-0.252
			c0.141-0.168,0.243-0.37,0.306-0.607c0.063-0.236,0.101-0.482,0.112-0.738c0.013-0.254,0.019-0.473,0.019-0.652
			c0-0.107-0.002-0.238-0.005-0.391c-0.003-0.154-0.015-0.311-0.036-0.473c-0.021-0.162-0.051-0.322-0.09-0.482
			c-0.039-0.158-0.098-0.301-0.175-0.428c-0.078-0.125-0.178-0.227-0.298-0.305s-0.267-0.117-0.44-0.117s-0.319,0.039-0.437,0.117
			s-0.213,0.18-0.288,0.305c-0.075,0.127-0.134,0.27-0.176,0.428c-0.042,0.16-0.071,0.32-0.09,0.482
			c-0.018,0.162-0.028,0.318-0.031,0.473c-0.003,0.152-0.005,0.283-0.005,0.391C43.224,375.791,43.229,376.01,43.242,376.264z"/>
		<path fill="#010101" d="M47.134,374.068c0.123-0.418,0.29-0.752,0.5-1.004s0.454-0.432,0.733-0.54s0.574-0.161,0.887-0.161
			c0.317,0,0.616,0.053,0.896,0.161s0.524,0.288,0.738,0.54c0.213,0.252,0.381,0.586,0.504,1.004
			c0.122,0.417,0.185,0.932,0.185,1.543c0,0.631-0.062,1.156-0.185,1.58c-0.123,0.423-0.291,0.76-0.504,1.012
			c-0.214,0.252-0.459,0.433-0.738,0.541c-0.279,0.107-0.578,0.162-0.896,0.162c-0.312,0-0.607-0.055-0.887-0.162
			c-0.279-0.108-0.523-0.289-0.733-0.541s-0.377-0.589-0.5-1.012c-0.123-0.424-0.184-0.949-0.184-1.58
			C46.95,375,47.011,374.485,47.134,374.068z M48.246,376.264c0.012,0.256,0.049,0.502,0.112,0.738
			c0.062,0.237,0.163,0.439,0.302,0.607c0.138,0.168,0.336,0.252,0.594,0.252c0.264,0,0.466-0.084,0.607-0.252
			c0.141-0.168,0.243-0.37,0.306-0.607c0.063-0.236,0.101-0.482,0.112-0.738c0.013-0.254,0.019-0.473,0.019-0.652
			c0-0.107-0.002-0.238-0.005-0.391c-0.003-0.154-0.015-0.311-0.036-0.473c-0.021-0.162-0.051-0.322-0.09-0.482
			c-0.039-0.158-0.098-0.301-0.175-0.428c-0.078-0.125-0.178-0.227-0.298-0.305s-0.267-0.117-0.44-0.117s-0.319,0.039-0.437,0.117
			s-0.213,0.18-0.288,0.305c-0.075,0.127-0.134,0.27-0.176,0.428c-0.042,0.16-0.071,0.32-0.09,0.482
			c-0.018,0.162-0.028,0.318-0.031,0.473c-0.003,0.152-0.005,0.283-0.005,0.391C48.228,375.791,48.233,376.01,48.246,376.264z"/>
	</g>
	<g>
		<path fill="#010101" d="M195.458,373.906c0.096-0.309,0.24-0.579,0.432-0.811c0.192-0.23,0.434-0.41,0.725-0.539
			s0.626-0.193,1.004-0.193c0.288,0,0.562,0.045,0.823,0.135s0.49,0.219,0.688,0.387s0.355,0.375,0.473,0.621
			s0.176,0.521,0.176,0.828c0,0.318-0.052,0.591-0.153,0.818c-0.103,0.229-0.237,0.431-0.405,0.607
			c-0.168,0.178-0.358,0.338-0.571,0.482c-0.213,0.144-0.428,0.286-0.644,0.427c-0.216,0.142-0.426,0.292-0.63,0.454
			s-0.384,0.352-0.54,0.567h2.979v1.099h-4.626c0-0.366,0.052-0.685,0.157-0.955c0.104-0.27,0.247-0.511,0.428-0.725
			c0.18-0.213,0.391-0.408,0.634-0.589s0.5-0.362,0.77-0.549c0.139-0.097,0.285-0.194,0.441-0.292
			c0.156-0.1,0.298-0.209,0.428-0.329c0.129-0.12,0.236-0.255,0.323-0.405c0.087-0.149,0.131-0.32,0.131-0.513
			c0-0.306-0.089-0.544-0.266-0.716c-0.177-0.171-0.403-0.256-0.68-0.256c-0.186,0-0.343,0.043-0.472,0.131
			c-0.13,0.086-0.233,0.2-0.311,0.342c-0.078,0.141-0.134,0.297-0.167,0.467c-0.033,0.172-0.05,0.342-0.05,0.51h-1.224
			C195.32,374.55,195.362,374.215,195.458,373.906z"/>
		<path fill="#010101" d="M200.376,374.068c0.123-0.418,0.29-0.752,0.5-1.004s0.454-0.432,0.733-0.54s0.574-0.161,0.887-0.161
			c0.317,0,0.616,0.053,0.896,0.161s0.524,0.288,0.738,0.54c0.213,0.252,0.381,0.586,0.504,1.004
			c0.122,0.417,0.185,0.932,0.185,1.543c0,0.631-0.062,1.156-0.185,1.58c-0.123,0.423-0.291,0.76-0.504,1.012
			c-0.214,0.252-0.459,0.433-0.738,0.541c-0.279,0.107-0.578,0.162-0.896,0.162c-0.312,0-0.607-0.055-0.887-0.162
			c-0.279-0.108-0.523-0.289-0.733-0.541s-0.377-0.589-0.5-1.012c-0.123-0.424-0.184-0.949-0.184-1.58
			C200.192,375,200.253,374.485,200.376,374.068z M201.488,376.264c0.012,0.256,0.049,0.502,0.112,0.738
			c0.062,0.237,0.163,0.439,0.302,0.607c0.138,0.168,0.336,0.252,0.594,0.252c0.264,0,0.466-0.084,0.607-0.252
			c0.141-0.168,0.243-0.37,0.306-0.607c0.063-0.236,0.101-0.482,0.112-0.738c0.013-0.254,0.019-0.473,0.019-0.652
			c0-0.107-0.002-0.238-0.005-0.391c-0.003-0.154-0.015-0.311-0.036-0.473c-0.021-0.162-0.051-0.322-0.09-0.482
			c-0.039-0.158-0.098-0.301-0.175-0.428c-0.078-0.125-0.178-0.227-0.298-0.305s-0.267-0.117-0.44-0.117s-0.319,0.039-0.437,0.117
			s-0.213,0.18-0.288,0.305c-0.075,0.127-0.134,0.27-0.176,0.428c-0.042,0.16-0.071,0.32-0.09,0.482
			c-0.018,0.162-0.028,0.318-0.031,0.473c-0.003,0.152-0.005,0.283-0.005,0.391C201.47,375.791,201.476,376.01,201.488,376.264z"/>
		<path fill="#010101" d="M207.257,378.789v-4.086h-1.584v-0.963c0.222,0.006,0.437-0.012,0.644-0.051s0.393-0.107,0.558-0.207
			c0.165-0.098,0.305-0.229,0.419-0.391s0.188-0.363,0.225-0.604h1.018v6.301H207.257z"/>
		<path fill="#010101" d="M212.504,375.035c0.156-0.012,0.302-0.046,0.437-0.104c0.135-0.057,0.246-0.139,0.333-0.247
			s0.13-0.252,0.13-0.433c0-0.27-0.09-0.477-0.27-0.621c-0.18-0.143-0.387-0.215-0.621-0.215c-0.324,0-0.568,0.105-0.733,0.318
			c-0.165,0.214-0.244,0.482-0.238,0.807h-1.215c0.012-0.324,0.07-0.62,0.175-0.887c0.105-0.268,0.252-0.496,0.441-0.689
			c0.188-0.191,0.415-0.34,0.68-0.445c0.264-0.104,0.558-0.156,0.882-0.156c0.252,0,0.504,0.037,0.756,0.111
			c0.252,0.076,0.479,0.188,0.68,0.338s0.364,0.333,0.49,0.549c0.126,0.217,0.189,0.465,0.189,0.747c0,0.306-0.074,0.576-0.221,0.81
			c-0.147,0.234-0.368,0.394-0.662,0.478v0.019c0.349,0.078,0.621,0.246,0.819,0.504s0.297,0.566,0.297,0.927
			c0,0.33-0.064,0.624-0.193,0.882s-0.302,0.475-0.518,0.648s-0.465,0.306-0.747,0.396s-0.576,0.136-0.882,0.136
			c-0.354,0-0.677-0.052-0.968-0.154c-0.291-0.102-0.538-0.25-0.742-0.445c-0.204-0.194-0.361-0.434-0.473-0.715
			c-0.111-0.282-0.163-0.605-0.157-0.973h1.215c0.006,0.168,0.033,0.329,0.081,0.482c0.048,0.152,0.117,0.285,0.207,0.396
			c0.09,0.111,0.202,0.2,0.338,0.266c0.135,0.065,0.295,0.099,0.481,0.099c0.288,0,0.53-0.088,0.729-0.266
			c0.198-0.177,0.297-0.418,0.297-0.725c0-0.239-0.046-0.422-0.14-0.549c-0.093-0.125-0.211-0.217-0.355-0.274
			c-0.144-0.057-0.301-0.09-0.472-0.099c-0.172-0.01-0.335-0.014-0.491-0.014v-0.9C212.201,375.048,212.348,375.048,212.504,375.035
			z"/>
	</g>
	<g>
		<polygon fill="#010101" points="71.077,311.871 63.483,309.354 127.614,115.901 191.743,309.354 184.149,311.871 127.614,141.325 
					"/>
	</g>
	<g>
		<g>
			<g>
				
					<rect x="178.772" y="117.304" transform="matrix(0.7071 -0.7071 0.7071 0.7071 -62.4453 190.3783)" fill="#FFFFFF" width="39.614" height="106.523"/>
				<path fill="#010101" d="M222.235,227.213l-80.305-80.303l32.994-32.992l80.301,80.303L222.235,227.213z M151.892,146.91
					l70.344,70.342l23.031-23.031l-70.342-70.343L151.892,146.91z"/>
			</g>
			<g>
				<line fill="#010101" x1="127.614" y1="127.613" x2="146.29" y2="146.287"/>
				
					<rect x="123.747" y="133.428" transform="matrix(0.7071 0.7071 -0.7071 0.7071 136.943 -56.7281)" fill="#010101" width="26.411" height="7.043"/>
			</g>
		</g>
		<g>
			<g>
				
					<rect x="150.759" y="3.386" transform="matrix(-0.7071 -0.7071 0.7071 -0.7071 251.1177 217.313)" fill="#FFFFFF" width="39.615" height="106.522"/>
				<path fill="#010101" d="M146.911,113.295l-32.994-32.993L194.222,0l32.992,32.992L146.911,113.295z M123.878,80.302
					l23.033,23.033l70.343-70.343L194.222,9.96L123.878,80.302z"/>
			</g>
			<g>
				<line fill="#010101" x1="127.614" y1="127.613" x2="146.29" y2="108.938"/>
				
					<rect x="133.43" y="105.07" transform="matrix(0.7071 0.7071 -0.7071 0.7071 123.7459 -62.1977)" fill="#010101" width="7.043" height="26.411"/>
			</g>
		</g>
		<g>
			<g>
				
					<rect x="36.841" y="31.399" transform="matrix(-0.7071 0.7071 -0.7071 -0.7071 156.5695 104.4684)" fill="#FFFFFF" width="39.616" height="106.523"/>
				<path fill="#010101" d="M80.304,141.308L0,61.005l32.993-32.992l80.305,80.302L80.304,141.308z M9.961,61.005l70.343,70.342
					l23.033-23.032L32.993,37.973L9.961,61.005z"/>
			</g>
			<g>
				<line fill="#010101" x1="127.614" y1="127.613" x2="108.939" y2="108.938"/>
				
					<rect x="105.072" y="114.754" transform="matrix(0.7071 0.7071 -0.7071 0.7071 118.2738 -48.9922)" fill="#010101" width="26.41" height="7.043"/>
			</g>
		</g>
		<g>
			<g>
				
					<rect x="64.854" y="145.316" transform="matrix(0.7071 0.7071 -0.7071 0.7071 165.2094 -1.7044)" fill="#FFFFFF" width="39.617" height="106.524"/>
				<path fill="#010101" d="M61.007,255.226l-32.994-32.992l80.305-80.303l32.99,32.993L61.007,255.226z M37.974,222.233
					l23.033,23.032l70.342-70.342l-23.031-23.033L37.974,222.233z"/>
			</g>
			<g>
				<line fill="#010101" x1="127.614" y1="127.613" x2="108.939" y2="146.287"/>
				
					<rect x="114.755" y="123.745" transform="matrix(0.7071 0.7071 -0.7071 0.7071 131.4807 -43.5226)" fill="#010101" width="7.043" height="26.41"/>
			</g>
		</g>
	</g>
	<g>
		<circle fill="#010101" cx="127.614" cy="128.155" r="11.407"/>
		<path fill="#010101" d="M127.616,142.005h-0.104c-3.613,0-6.999-1.623-9.534-4.197s-3.917-5.874-3.889-9.487
			c0.057-7.401,6.123-13.316,13.522-13.316h0.104c3.613,0,6.999,1.272,9.534,3.846c2.535,2.574,3.916,6.05,3.889,9.663
			C141.083,135.915,135.018,142.005,127.616,142.005z M127.685,118.866c-5.155,0-9.321,4.135-9.359,9.218
			c-0.02,2.481,0.929,4.82,2.67,6.588c1.741,1.768,4.121,2.751,6.603,2.771l0.126,2.119v-2.118c5,0,9.194-4.135,9.232-9.218
			c0.019-2.481-0.957-4.821-2.697-6.589C132.517,119.869,130.165,118.885,127.685,118.866z"/>
	</g>
</g>
<g>
</g>
<g>
</g>
<g>
</g>
<g>
</g>
<g>
</g>
<g>
</g>
</svg>
