<?xml version="1.0" encoding="utf-8"?>
<!-- Generator: Adobe Illustrator 16.0.0, SVG Export Plug-In . SVG Version: 6.00 Build 0)  -->
<!DOCTYPE svg PUBLIC "-//W3C//DTD SVG 1.1//EN" "http://www.w3.org/Graphics/SVG/1.1/DTD/svg11.dtd">
<svg version="1.1" id="Layer_1" xmlns="http://www.w3.org/2000/svg" xmlns:xlink="http://www.w3.org/1999/xlink" x="0px" y="0px"
	 width="276.927px" height="232.345px" viewBox="0 0 276.927 232.345" enable-background="new 0 0 276.927 232.345"
	 xml:space="preserve">
<g id="dikste_boom">
	<g>
		<path fill="#010101" d="M46.443,180.144l-6.369-4.842l3.185,2.421l-3.188-2.417c0.179-0.236,17.89-23.996,18.819-55.609
			l7.996,0.236C65.879,154.191,47.236,179.1,46.443,180.144z"/>
	</g>
	<g>
		<path fill="#010101" d="M234.583,180.357c-0.812-0.928-19.879-23.049-19.879-51.291h8c0,25.176,17.725,45.821,17.903,46.027
			L234.583,180.357z"/>
	</g>
	<g>
		<path fill="#010101" d="M138.954,166.802c-1.365,0-2.725-0.182-4.04-0.541c-9.438-2.576-14.642-13.73-11.602-24.863
			c2.581-9.456,10.224-16.061,18.586-16.061c1.366,0,2.727,0.183,4.042,0.542c9.436,2.577,14.641,13.73,11.601,24.863
			C154.959,160.199,147.315,166.802,138.954,166.802z M141.898,133.337c-4.689,0-9.261,4.275-10.869,10.167
			c-1.878,6.878,0.811,13.625,5.992,15.04c0.628,0.172,1.278,0.258,1.933,0.258c4.689,0,9.261-4.275,10.87-10.166
			c1.877-6.878-0.811-13.625-5.992-15.039C143.203,133.425,142.553,133.337,141.898,133.337z"/>
	</g>
	<g>
		<path fill="#010101" d="M223.854,133.63c-11.65,0-21.752-6.896-26.163-17.146c-5.88,4.716-13.207,7.331-20.906,7.331
			c-10.338,0-20.012-4.847-26.283-12.792c-5.18,7.869-14.02,12.792-23.814,12.792c-8.405,0-15.89-5.517-21.091-12.392
			c-4.374,10.872-14.121,20.245-26.021,20.245c-6.805,0-13.318-2.43-18.442-6.779c-4.537,4.305-10.586,6.779-16.892,6.779
			c-8.554,0-16.514-4.561-20.952-11.814C10.33,119.166,0,108.405,0,95.278C0,84.083,7.453,74.6,17.927,71.686
			c-0.173-1.301-0.26-2.601-0.26-3.89c0-16.818,13.683-30.5,30.5-30.5c3.146,0,6.273,0.491,9.257,1.44
			C60.021,24.536,72.487,13.74,87.427,13.74c8.755,0,16.85,3.679,22.535,9.956C116.649,9.422,131.034,0,147.297,0
			c14.105,0,27.158,7.276,34.69,18.948c6.081-5.797,14.225-9.133,22.727-9.133c15.58,0,28.747,10.732,32.119,25.547
			c0.421-0.019,0.837-0.028,1.251-0.028c17.089,0,30.991,13.902,30.991,30.99c0,3.714-0.647,7.315-1.93,10.747
			c6.113,4.35,9.781,11.316,9.781,18.944c0,12.894-10.49,23.384-23.384,23.384c-1.567,0-3.146-0.171-4.72-0.511
			C243.848,127.951,234.4,133.63,223.854,133.63z M202.201,99.466l1.396,8.847c1.583,10.034,10.103,17.317,20.257,17.317
			c8.48,0,15.975-5.108,19.093-13.014l1.45-3.677l3.693,1.406c1.837,0.699,3.672,1.054,5.453,1.054
			c8.482,0,15.384-6.901,15.384-15.384c0-5.852-3.309-11.12-8.635-13.747l-3.657-1.804l1.874-3.622
			c1.703-3.292,2.566-6.831,2.566-10.519c0-12.677-10.313-22.99-22.991-22.99c-1.214,0-2.49,0.117-3.901,0.358l-4.213,0.72
			l-0.439-4.25c-1.319-12.74-11.988-22.347-24.816-22.347c-7.98,0-15.546,3.889-20.238,10.403l-4.03,5.594l-2.856-6.274
			C172.186,15.669,160.295,8,147.297,8c-15.359,0-28.641,10.427-32.299,25.357l-2.589,10.57l-4.873-9.73
			c-3.847-7.684-11.553-12.457-20.109-12.457c-12.38,0-22.457,10.048-22.501,22.418c0.009,0.129,0.015,0.241,0.017,0.354
			l0.118,6.906l-6.049-3.335c-3.308-1.824-7.058-2.788-10.845-2.788c-12.406,0-22.5,10.093-22.5,22.5c0,1.971,0.282,3.99,0.839,6
			l1.271,4.593l-4.743,0.456C14.463,79.668,8,86.733,8,95.278c0,9.13,7.404,16.563,16.522,16.61l0.101-0.013
			c0.269-0.038,0.537-0.07,0.812-0.084l2.677-0.133l1.141,2.425c2.74,5.823,8.623,9.584,14.988,9.584
			c5.366,0,10.268-2.531,13.448-6.944l2.976-4.129l3.309,3.867c3.919,4.58,9.605,7.207,15.602,7.207
			c10.697,0,19.785-12.44,20.465-23.142l1.088-17.113l6.597,15.828c3.433,8.236,11.048,16.574,18.963,16.574
			c8.976,0,16.838-5.745,19.563-14.296l3.114-9.767l4.324,9.294c4.174,8.972,13.239,14.769,23.096,14.769
			c7.689,0,14.892-3.428,19.76-9.405L202.201,99.466z"/>
	</g>
	<g>
		<rect x="74.486" y="226.283" fill="#010101" width="135" height="1"/>
	</g>
	<g>
		<polygon fill="#010101" points="73.986,231.48 65.628,226.654 73.986,221.826 		"/>
		<path fill="#010101" d="M74.486,232.345l-9.858-5.691l9.858-5.693V232.345z M66.628,226.654l6.858,3.959v-7.92L66.628,226.654z"/>
	</g>
	<g>
		<polygon fill="#010101" points="208.986,231.48 217.346,226.654 208.986,221.826 		"/>
		<path fill="#010101" d="M208.486,232.345V220.96l9.859,5.693L208.486,232.345z M209.486,222.693v7.92l6.859-3.959L209.486,222.693
			z"/>
	</g>
</g>
<g>
</g>
<g>
</g>
<g>
</g>
<g>
</g>
<g>
</g>
<g>
</g>
</svg>
