<?xml version="1.0" encoding="utf-8"?>
<!-- Generator: Adobe Illustrator 16.0.0, SVG Export Plug-In . SVG Version: 6.00 Build 0)  -->
<!DOCTYPE svg PUBLIC "-//W3C//DTD SVG 1.1//EN" "http://www.w3.org/Graphics/SVG/1.1/DTD/svg11.dtd">
<svg version="1.1" id="Layer_1" xmlns="http://www.w3.org/2000/svg" xmlns:xlink="http://www.w3.org/1999/xlink" x="0px" y="0px"
	 width="177.629px" height="418px" viewBox="0 0 177.629 418" enable-background="new 0 0 177.629 418" xml:space="preserve">
<g id="hoogste_gebouw">
	<g>
		<polygon fill="#010101" points="146,418 138,418 138,56 8,56 8,418 0,418 0,48 146,48 		"/>
	</g>
	<g>
		<rect x="72" fill="#010101" width="1" height="50"/>
	</g>
	<g>
		<rect x="172" y="32" fill="#010101" width="1" height="385"/>
	</g>
	<g>
		<polygon fill="#010101" points="177.629,32 172.803,23.641 167.977,32 		"/>
	</g>
	<g>
		<g>
			<path fill="#010101" d="M32,93H15V68h17V93z M16,92h15V69H16V92z"/>
		</g>
		<g>
			<path fill="#010101" d="M56,93H39V68h17V93z M40,92h15V69H40V92z"/>
		</g>
		<g>
			<path fill="#010101" d="M80,93H63V68h17V93z M64,92h15V69H64V92z"/>
		</g>
		<g>
			<path fill="#010101" d="M105,93H88V68h17V93z M89,92h15V69H89V92z"/>
		</g>
		<g>
			<path fill="#010101" d="M129,93h-17V68h17V93z M113,92h15V69h-15V92z"/>
		</g>
	</g>
	<g>
		<g>
			<path fill="#010101" d="M32,128H15v-25h17V128z M16,127h15v-23H16V127z"/>
		</g>
		<g>
			<path fill="#010101" d="M56,128H39v-25h17V128z M40,127h15v-23H40V127z"/>
		</g>
		<g>
			<path fill="#010101" d="M80,128H63v-25h17V128z M64,127h15v-23H64V127z"/>
		</g>
		<g>
			<path fill="#010101" d="M105,128H88v-25h17V128z M89,127h15v-23H89V127z"/>
		</g>
		<g>
			<path fill="#010101" d="M129,128h-17v-25h17V128z M113,127h15v-23h-15V127z"/>
		</g>
	</g>
	<g>
		<g>
			<path fill="#010101" d="M32,163H15v-25h17V163z M16,162h15v-23H16V162z"/>
		</g>
		<g>
			<path fill="#010101" d="M56,163H39v-25h17V163z M40,162h15v-23H40V162z"/>
		</g>
		<g>
			<path fill="#010101" d="M80,163H63v-25h17V163z M64,162h15v-23H64V162z"/>
		</g>
		<g>
			<path fill="#010101" d="M105,163H88v-25h17V163z M89,162h15v-23H89V162z"/>
		</g>
		<g>
			<path fill="#010101" d="M129,163h-17v-25h17V163z M113,162h15v-23h-15V162z"/>
		</g>
	</g>
	<g>
		<g>
			<path fill="#010101" d="M32,198H15v-25h17V198z M16,197h15v-23H16V197z"/>
		</g>
		<g>
			<path fill="#010101" d="M56,198H39v-25h17V198z M40,197h15v-23H40V197z"/>
		</g>
		<g>
			<path fill="#010101" d="M80,198H63v-25h17V198z M64,197h15v-23H64V197z"/>
		</g>
		<g>
			<path fill="#010101" d="M105,198H88v-25h17V198z M89,197h15v-23H89V197z"/>
		</g>
		<g>
			<path fill="#010101" d="M129,198h-17v-25h17V198z M113,197h15v-23h-15V197z"/>
		</g>
	</g>
	<g>
		<g>
			<path fill="#010101" d="M32,233H15v-25h17V233z M16,232h15v-23H16V232z"/>
		</g>
		<g>
			<path fill="#010101" d="M56,233H39v-25h17V233z M40,232h15v-23H40V232z"/>
		</g>
		<g>
			<path fill="#010101" d="M80,233H63v-25h17V233z M64,232h15v-23H64V232z"/>
		</g>
		<g>
			<path fill="#010101" d="M105,233H88v-25h17V233z M89,232h15v-23H89V232z"/>
		</g>
		<g>
			<path fill="#010101" d="M129,233h-17v-25h17V233z M113,232h15v-23h-15V232z"/>
		</g>
	</g>
	<g>
		<g>
			<path fill="#010101" d="M32,268H15v-25h17V268z M16,267h15v-23H16V267z"/>
		</g>
		<g>
			<path fill="#010101" d="M56,268H39v-25h17V268z M40,267h15v-23H40V267z"/>
		</g>
		<g>
			<path fill="#010101" d="M80,268H63v-25h17V268z M64,267h15v-23H64V267z"/>
		</g>
		<g>
			<path fill="#010101" d="M105,268H88v-25h17V268z M89,267h15v-23H89V267z"/>
		</g>
		<g>
			<path fill="#010101" d="M129,268h-17v-25h17V268z M113,267h15v-23h-15V267z"/>
		</g>
	</g>
	<g>
		<g>
			<path fill="#010101" d="M32,303H15v-25h17V303z M16,302h15v-23H16V302z"/>
		</g>
		<g>
			<path fill="#010101" d="M56,303H39v-25h17V303z M40,302h15v-23H40V302z"/>
		</g>
		<g>
			<path fill="#010101" d="M80,303H63v-25h17V303z M64,302h15v-23H64V302z"/>
		</g>
		<g>
			<path fill="#010101" d="M105,303H88v-25h17V303z M89,302h15v-23H89V302z"/>
		</g>
		<g>
			<path fill="#010101" d="M129,303h-17v-25h17V303z M113,302h15v-23h-15V302z"/>
		</g>
	</g>
	<g>
		<g>
			<path fill="#010101" d="M32,338H15v-25h17V338z M16,337h15v-23H16V337z"/>
		</g>
		<g>
			<path fill="#010101" d="M56,338H39v-25h17V338z M40,337h15v-23H40V337z"/>
		</g>
		<g>
			<path fill="#010101" d="M80,338H63v-25h17V338z M64,337h15v-23H64V337z"/>
		</g>
		<g>
			<path fill="#010101" d="M105,338H88v-25h17V338z M89,337h15v-23H89V337z"/>
		</g>
		<g>
			<path fill="#010101" d="M129,338h-17v-25h17V338z M113,337h15v-23h-15V337z"/>
		</g>
	</g>
	<g>
		<g>
			<path fill="#010101" d="M32,373H15v-25h17V373z M16,372h15v-23H16V372z"/>
		</g>
		<g>
			<path fill="#010101" d="M56,373H39v-25h17V373z M40,372h15v-23H40V372z"/>
		</g>
		<g>
			<path fill="#010101" d="M80,373H63v-25h17V373z M64,372h15v-23H64V372z"/>
		</g>
		<g>
			<path fill="#010101" d="M105,373H88v-25h17V373z M89,372h15v-23H89V372z"/>
		</g>
		<g>
			<path fill="#010101" d="M129,373h-17v-25h17V373z M113,372h15v-23h-15V372z"/>
		</g>
	</g>
	<g>
		<g>
			<path fill="#010101" d="M32,408H15v-25h17V408z M16,407h15v-23H16V407z"/>
		</g>
		<g>
			<path fill="#010101" d="M56,408H39v-25h17V408z M40,407h15v-23H40V407z"/>
		</g>
		<g>
			<path fill="#010101" d="M80,408H63v-25h17V408z M64,407h15v-23H64V407z"/>
		</g>
		<g>
			<path fill="#010101" d="M105,408H88v-25h17V408z M89,407h15v-23H89V407z"/>
		</g>
		<g>
			<path fill="#010101" d="M129,408h-17v-25h17V408z M113,407h15v-23h-15V407z"/>
		</g>
	</g>
</g>
<g>
</g>
<g>
</g>
<g>
</g>
<g>
</g>
<g>
</g>
<g>
</g>
</svg>
