<?xml version="1.0" encoding="utf-8"?>
<!-- Generator: Adobe Illustrator 16.0.0, SVG Export Plug-In . SVG Version: 6.00 Build 0)  -->
<!DOCTYPE svg PUBLIC "-//W3C//DTD SVG 1.1//EN" "http://www.w3.org/Graphics/SVG/1.1/DTD/svg11.dtd">
<svg version="1.1" id="Layer_1" xmlns="http://www.w3.org/2000/svg" xmlns:xlink="http://www.w3.org/1999/xlink" x="0px" y="0px"
	 width="121.35px" height="293.207px" viewBox="0 0 121.35 293.207" enable-background="new 0 0 121.35 293.207"
	 xml:space="preserve">
<g id="smalste_huis">
	<g>
		<rect x="15.502" y="287.561" fill="#010101" width="91" height="1"/>
	</g>
	<g>
		<polygon fill="#010101" points="110.502,283.553 102.143,288.379 110.502,293.207 		"/>
	</g>
	<g>
		<polygon fill="#010101" points="12.502,283.553 20.861,288.379 12.502,293.207 		"/>
	</g>
	<g>
		<path fill="#010101" d="M81.502,131.56h-41v-67h41V131.56z M48.502,123.56h25v-51h-25V123.56z"/>
	</g>
	<g>
		<polygon fill="#010101" points="81.502,235.561 73.502,235.561 73.502,161.561 48.502,161.561 48.502,235.561 40.502,235.561 
			40.502,153.561 81.502,153.561 		"/>
	</g>
	<g>
		<g>
			<rect x="14.502" y="48.56" fill="#010101" width="8" height="187"/>
		</g>
		<g>
			
				<rect x="27.752" y="-6.485" transform="matrix(0.707 0.7072 -0.7072 0.707 33.6418 -12.3708)" fill="#010101" width="8" height="81.808"/>
		</g>
		<g>
			
				<rect x="45.475" y="29.086" transform="matrix(0.7071 0.7071 -0.7071 0.7071 49.2471 -52.722)" fill="#010101" width="85.579" height="8"/>
		</g>
		<g>
			<rect x="102.502" y="50.56" fill="#010101" width="8" height="185"/>
		</g>
		<g>
			<rect x="91.502" y="10.56" fill="#010101" width="8" height="30"/>
		</g>
	</g>
</g>
<g>
</g>
<g>
</g>
<g>
</g>
<g>
</g>
<g>
</g>
<g>
</g>
</svg>
